<svg
  xmlns="http://www.w3.org/2000/svg"
  width="28"
  height="26"
  viewBox="0 0 28 26"
  fill="none"
>
  <path
    fill-rule="evenodd"
    clip-rule="evenodd"
    d="M18.1362 21.1198C18.2469 20.9215 18.4248 20.7698 18.6375 20.6923C18.8502 20.6148 19.0835 20.6168 19.2949 20.6978C19.5063 20.7788 19.6817 20.9334 19.7892 21.1335C19.8966 21.3336 19.9289 21.5659 19.8802 21.7879C19.8315 22.01 19.705 22.207 19.5238 22.3432C19.3426 22.4793 19.1187 22.5455 18.893 22.5296C18.6673 22.5137 18.4549 22.4169 18.2943 22.2567C18.1337 22.0965 18.0358 21.8836 18.0183 21.6569C18.004 21.4701 18.045 21.2832 18.1362 21.1198ZM13.9957 19.5365C13.7399 19.5219 13.4869 19.5968 13.2799 19.7485C13.0729 19.9003 12.9246 20.1195 12.8603 20.3687C12.796 20.618 12.8197 20.882 12.9273 21.1157C13.035 21.3494 13.2199 21.5384 13.4506 21.6505C13.6812 21.7625 13.9435 21.7907 14.1925 21.7303C14.4416 21.6699 14.6621 21.5246 14.8166 21.3191C14.971 21.1136 15.0498 20.8606 15.0395 20.6033C15.0292 20.346 14.9304 20.1002 14.7601 19.9078C14.6632 19.7985 14.5458 19.7094 14.4147 19.6457C14.2835 19.5819 14.1411 19.5449 13.9957 19.5365ZM13.5498 24.5482C13.7101 24.4533 13.899 24.4195 14.0821 24.453C14.2651 24.4864 14.4301 24.5849 14.547 24.7304C14.6639 24.8759 14.7248 25.0587 14.7187 25.2456C14.7127 25.4325 14.64 25.611 14.514 25.7485C14.3879 25.8861 14.2169 25.9735 14.032 25.9949C13.8472 26.0163 13.6609 25.9702 13.507 25.8651C13.3532 25.7599 13.242 25.6027 13.1939 25.4221C13.1457 25.2415 13.1637 25.0495 13.2446 24.8811C13.3114 24.7423 13.4176 24.6264 13.5498 24.5482ZM9.59208 20.815C9.40966 20.6948 9.1914 20.6418 8.97449 20.6652C8.75758 20.6886 8.55545 20.7868 8.40255 20.9432C8.24964 21.0996 8.15544 21.3045 8.13598 21.5228C8.11653 21.7412 8.17303 21.9596 8.29586 22.1408C8.41869 22.322 8.60024 22.4548 8.80957 22.5165C9.0189 22.5783 9.24305 22.5651 9.44381 22.4793C9.64458 22.3936 9.80954 22.2405 9.91056 22.0461C10.0116 21.8518 10.0424 21.6283 9.99784 21.4137C9.9468 21.168 9.80087 20.9527 9.59208 20.815ZM13.6612 16.7176C13.6975 17.1645 13.5749 17.6098 13.3153 17.9744C13.0556 18.339 12.6757 18.5992 12.2431 18.7087C11.8105 18.8183 11.3533 18.7701 10.9528 18.5727C10.5522 18.3753 10.2343 18.0415 10.0556 17.6307C9.87687 17.2199 9.84891 16.7587 9.97669 16.3291C10.1045 15.8995 10.3797 15.5294 10.7534 15.2846C11.1272 15.0398 11.5752 14.9362 12.0178 14.9921C12.4604 15.0481 12.869 15.26 13.1707 15.5902C13.4546 15.9006 13.6273 16.2974 13.6612 16.7176ZM20.4472 24.0917C20.3123 24.1602 20.2075 24.2766 20.1533 24.4185C20.0991 24.5603 20.0992 24.7173 20.1538 24.859C20.2084 25.0006 20.3134 25.1169 20.4485 25.185C20.5836 25.2532 20.7391 25.2684 20.8847 25.2278C21.0303 25.1871 21.1557 25.0935 21.2365 24.965C21.3173 24.8366 21.3476 24.6826 21.3216 24.5329C21.2957 24.3833 21.2153 24.2486 21.096 24.1553C20.9768 24.0619 20.8273 24.0164 20.6765 24.0277C20.5967 24.0337 20.5187 24.0554 20.4472 24.0917ZM7.32499 24.0584C7.47131 24.0572 7.6132 24.1088 7.7248 24.2039C7.8364 24.2991 7.91028 24.4313 7.93297 24.5766C7.95566 24.7219 7.92565 24.8705 7.84841 24.9955C7.77117 25.1204 7.65185 25.2132 7.51219 25.2571C7.37253 25.301 7.22182 25.293 7.08755 25.2345C6.95328 25.1761 6.84437 25.0711 6.78069 24.9387C6.717 24.8062 6.70277 24.6553 6.7406 24.5132C6.77842 24.3711 6.86577 24.2474 6.98674 24.1647C7.08657 24.0964 7.20427 24.0595 7.32499 24.0584ZM24.9699 18.4373C24.8088 18.3312 24.6142 18.2891 24.424 18.3192C24.2337 18.3493 24.0614 18.4494 23.9405 18.6002C23.8197 18.7509 23.7589 18.9414 23.7701 19.1347C23.7812 19.3279 23.8635 19.5101 24.0009 19.6458C24.1383 19.7814 24.321 19.8609 24.5135 19.8686C24.7059 19.8764 24.8944 19.8119 25.0422 19.6878C25.19 19.5637 25.2865 19.3887 25.3131 19.197C25.3396 19.0053 25.2943 18.8104 25.1859 18.6505C25.1285 18.5658 25.0551 18.4934 24.9699 18.4373ZM27.0816 12.4435C27.2076 12.3691 27.356 12.3427 27.4998 12.369C27.6436 12.3954 27.7732 12.4728 27.8649 12.5872C27.9567 12.7015 28.0045 12.8452 27.9997 12.992C27.9948 13.1388 27.9377 13.279 27.8386 13.387C27.7396 13.495 27.6052 13.5637 27.46 13.5805C27.3148 13.5972 27.1684 13.561 27.0476 13.4784C26.9267 13.3958 26.8394 13.2723 26.8016 13.1304C26.7637 12.9885 26.7779 12.8376 26.8414 12.7054C26.8939 12.5961 26.9775 12.505 27.0816 12.4435ZM24.8177 13.0338C24.8301 12.8151 24.7668 12.5988 24.6384 12.4217C24.5099 12.2447 24.3244 12.1179 24.1134 12.063C23.9024 12.008 23.679 12.0283 23.4812 12.1204C23.2834 12.2125 23.1235 12.3706 23.0287 12.5679C22.9339 12.7652 22.9101 12.9894 22.9614 13.2023C23.0127 13.4153 23.1358 13.6037 23.3099 13.7356C23.4839 13.8675 23.6981 13.9347 23.9159 13.9257C24.1337 13.9167 24.3416 13.832 24.5043 13.6862C24.5966 13.6035 24.6718 13.5033 24.7256 13.3913C24.7794 13.2794 24.8107 13.1579 24.8177 13.0338ZM20.5912 15.6971C20.8571 15.6951 21.115 15.7892 21.3176 15.9623C21.5203 16.1354 21.6544 16.3759 21.6953 16.6401C21.7363 16.9042 21.6814 17.1743 21.5408 17.4012C21.4001 17.628 21.183 17.7966 20.9291 17.876C20.6751 17.9554 20.4012 17.9405 20.1573 17.8339C19.9134 17.7273 19.7157 17.5362 19.6003 17.2953C19.4849 17.0545 19.4595 16.78 19.5287 16.5219C19.5978 16.2637 19.757 16.0392 19.9771 15.8892C20.1584 15.7656 20.3721 15.6988 20.5912 15.6971ZM17.9158 16.0121C17.7647 15.7112 17.5365 15.4562 17.2547 15.2735C16.9728 15.0908 16.6476 14.987 16.3126 14.9728C15.9775 14.9586 15.6447 15.0344 15.3486 15.1926C15.0524 15.3507 14.8036 15.5854 14.6278 15.8724C14.452 16.1595 14.3556 16.4885 14.3485 16.8254C14.3414 17.1624 14.4239 17.4952 14.5875 17.7894C14.751 18.0837 14.9897 18.3288 15.2789 18.4993C15.5682 18.6699 15.8975 18.7599 16.2328 18.7599C16.5277 18.7579 16.8182 18.6871 17.0813 18.5531C17.5264 18.3267 17.8641 17.9322 18.0205 17.4561C18.1769 16.98 18.1392 16.4604 17.9158 16.0121ZM14.332 9.2789C14.2957 8.83202 14.4183 8.38669 14.678 8.02211C14.9376 7.65753 15.3175 7.39734 15.7501 7.28779C16.1827 7.17825 16.6399 7.22646 17.0405 7.42386C17.441 7.62125 17.7589 7.95503 17.9376 8.36584C18.1164 8.77665 18.1443 9.23785 18.0165 9.66742C17.8888 10.097 17.6135 10.4671 17.2398 10.7119C16.8661 10.9567 16.418 11.0604 15.9754 11.0044C15.5328 10.9484 15.1243 10.7365 14.8225 10.4063C14.5388 10.0958 14.3662 9.69908 14.332 9.2789ZM7.91358 17.8323C8.14245 17.716 8.32414 17.5236 8.4277 17.2879C8.53125 17.0521 8.55027 16.7875 8.48149 16.5392C8.41272 16.2909 8.26042 16.0743 8.05055 15.9262C7.84067 15.7781 7.5862 15.7078 7.33049 15.7271C7.07479 15.7465 6.83367 15.8544 6.64822 16.0324C6.46277 16.2104 6.34447 16.4475 6.31347 16.7033C6.28246 16.9591 6.34068 17.2179 6.4782 17.4354C6.61572 17.6529 6.82403 17.8158 7.06764 17.8963C7.20592 17.942 7.3518 17.9598 7.49694 17.9488C7.64209 17.9378 7.78366 17.8982 7.91358 17.8323ZM14.5441 6.30827C14.3152 6.44406 14.0454 6.49266 13.7838 6.44519C13.5222 6.39772 13.2863 6.25736 13.1191 6.04968C12.9519 5.84201 12.8645 5.58086 12.8729 5.31384C12.8813 5.04682 12.9848 4.79171 13.1647 4.59504C13.3446 4.39836 13.5888 4.2732 13.8529 4.24238C14.1169 4.21157 14.3832 4.27714 14.6031 4.42715C14.8231 4.57717 14.982 4.80163 15.0511 5.05961C15.1201 5.3176 15.0946 5.59193 14.9792 5.83258C14.8841 6.03084 14.7327 6.19636 14.5441 6.30827ZM19.6191 8.61307C19.75 8.38061 19.9597 8.20317 20.2099 8.1131C20.4601 8.02303 20.7342 8.02631 20.9822 8.12236C21.2302 8.2184 21.4356 8.40081 21.561 8.63634C21.6864 8.87187 21.7233 9.14483 21.6652 9.40548C21.6071 9.66613 21.4577 9.89711 21.2443 10.0563C21.0309 10.2155 20.7677 10.2924 20.5026 10.2728C20.2376 10.2533 19.9883 10.1387 19.8003 9.94991C19.6123 9.76112 19.498 9.51071 19.4783 9.24432C19.4621 9.02454 19.5111 8.80486 19.6191 8.61307ZM24.8654 7.5631C25.0259 7.48188 25.1534 7.34725 25.2261 7.18215C25.2989 7.01705 25.3124 6.8317 25.2645 6.65769C25.2165 6.48367 25.11 6.33177 24.963 6.22785C24.8161 6.12393 24.6379 6.07444 24.4587 6.0878C24.2795 6.10116 24.1105 6.17655 23.9805 6.30112C23.8504 6.42569 23.7673 6.59174 23.7454 6.77096C23.7235 6.95018 23.7642 7.13149 23.8604 7.28399C23.9566 7.43649 24.1024 7.55074 24.273 7.60728C24.3698 7.63939 24.472 7.65201 24.5736 7.64443C24.6753 7.63685 24.7744 7.60922 24.8654 7.5631ZM10.7788 10.7508C10.3892 10.5107 10.0992 10.1372 9.96227 9.69898C9.82535 9.26081 9.85081 8.78764 10.0339 8.36685C10.217 7.94607 10.5455 7.60609 10.9585 7.40968C11.3716 7.21328 11.8414 7.17372 12.2813 7.29832C12.7211 7.42291 13.1012 7.70324 13.3514 8.08754C13.6017 8.47184 13.7051 8.93415 13.6426 9.38912C13.5801 9.84408 13.356 10.261 13.0116 10.5628C12.6671 10.8646 12.2257 11.031 11.7687 11.0312C11.4192 11.0322 11.0763 10.9351 10.7788 10.7508ZM18.5502 11.0971C18.0536 11.0728 17.5675 11.2466 17.1978 11.5807C16.8281 11.9148 16.6046 12.3822 16.576 12.8811C16.5475 13.38 16.7161 13.87 17.0453 14.2445C17.3745 14.6191 17.8375 14.8478 18.3336 14.8808H18.4426C18.8063 14.8807 19.1621 14.7748 19.4673 14.576C19.7725 14.3771 20.0139 14.0938 20.1624 13.7602C20.311 13.4265 20.3603 13.0568 20.3045 12.6956C20.2486 12.3344 20.09 11.9972 19.8478 11.7245C19.6838 11.5386 19.4845 11.3874 19.2618 11.2797C19.039 11.172 18.7971 11.1099 18.5502 11.0971ZM18.4018 5.18276C18.5983 5.31039 18.835 5.35999 19.0658 5.3219C19.2967 5.28381 19.5052 5.16077 19.6507 4.97671C19.7963 4.79265 19.8685 4.56074 19.8533 4.32612C19.8382 4.09149 19.7367 3.87093 19.5686 3.70735C19.4006 3.54377 19.178 3.44888 18.9442 3.44114C18.7104 3.43341 18.4821 3.51338 18.3037 3.66549C18.1253 3.8176 18.0096 4.03097 17.9791 4.26409C17.9486 4.49721 18.0055 4.73339 18.1387 4.92667C18.2089 5.02853 18.2983 5.11554 18.4018 5.18276ZM7.40844 10.3045C7.14264 10.3065 6.885 10.2124 6.68247 10.0394C6.47995 9.86639 6.34602 9.62599 6.30511 9.36203C6.2642 9.09808 6.31903 8.82813 6.4596 8.60141C6.60018 8.37469 6.81714 8.20629 7.07093 8.12691C7.32472 8.04753 7.59845 8.06245 7.8422 8.16897C8.08596 8.27548 8.28352 8.46648 8.39886 8.70716C8.51421 8.94783 8.53966 9.22216 8.47057 9.48012C8.40149 9.73808 8.24247 9.9625 8.0225 10.1125C7.84115 10.236 7.6275 10.3028 7.40844 10.3045ZM3.13097 18.4373C2.95865 18.5245 2.82477 18.673 2.75538 18.854C2.68599 19.0349 2.68606 19.2353 2.75556 19.4162C2.82507 19.5971 2.95904 19.7456 3.13142 19.8327C3.3038 19.9198 3.50226 19.9393 3.68819 19.8875C3.87412 19.8357 4.03422 19.7162 4.13735 19.5523C4.24047 19.3884 4.27925 19.1919 4.24614 19.0008C4.21303 18.8098 4.11039 18.6379 3.95819 18.5187C3.806 18.3996 3.61513 18.3415 3.42272 18.356C3.3211 18.3635 3.22197 18.3912 3.13097 18.4373ZM3.64058 12.2047C3.83524 12.0894 4.06464 12.0483 4.28695 12.0888C4.50927 12.1294 4.70969 12.2488 4.85167 12.4255C4.99366 12.6021 5.06776 12.8242 5.06046 13.0511C5.05316 13.2781 4.96494 13.4949 4.8119 13.6619C4.65886 13.829 4.45118 13.9352 4.22672 13.9612C4.00227 13.9872 3.77599 13.9313 3.58914 13.8036C3.40229 13.6759 3.26732 13.485 3.20882 13.2657C3.15033 13.0463 3.17221 12.8132 3.27048 12.6087C3.35143 12.4402 3.48021 12.2997 3.64058 12.2047ZM3.02523 7.56246C3.1752 7.66134 3.35464 7.7049 3.53297 7.68571C3.71131 7.66653 3.87751 7.58578 4.00326 7.45724C4.129 7.3287 4.20651 7.16032 4.22258 6.98078C4.23864 6.80125 4.19227 6.62166 4.09137 6.47264C3.99046 6.32361 3.84126 6.21436 3.66919 6.1635C3.49713 6.11263 3.31283 6.12331 3.14772 6.19371C2.98261 6.2641 2.84689 6.38986 2.76369 6.54956C2.68049 6.70925 2.65496 6.893 2.69144 7.06949C2.73333 7.27177 2.85338 7.44907 3.02523 7.56246ZM9.86025 4.87802C9.74921 5.07559 9.57123 5.22648 9.35875 5.30318C9.14626 5.37989 8.91343 5.37729 8.70269 5.29587C8.49195 5.21445 8.31734 5.05963 8.21068 4.85963C8.10403 4.65963 8.07244 4.42777 8.12167 4.20632C8.17089 3.98486 8.29766 3.78856 8.47887 3.65319C8.66007 3.51783 8.88364 3.45242 9.10881 3.46888C9.33399 3.48535 9.54579 3.58259 9.70559 3.74289C9.86539 3.90319 9.96255 4.11587 9.97937 4.34215C9.99327 4.52868 9.95182 4.71517 9.86025 4.87802ZM0.298868 12.5037C0.424547 12.429 0.572763 12.4021 0.716499 12.428C0.860235 12.4539 0.98992 12.5309 1.08191 12.6449C1.17391 12.7589 1.22209 12.9023 1.21767 13.049C1.21325 13.1957 1.15652 13.3359 1.05783 13.4441C0.959146 13.5522 0.825066 13.6212 0.680033 13.6383C0.535 13.6554 0.388672 13.6196 0.267724 13.5374C0.146775 13.4551 0.0592587 13.3319 0.0211276 13.1903C-0.0170035 13.0486 -0.00321031 12.8979 0.0599929 12.7655C0.112077 12.6564 0.195212 12.5653 0.298868 12.5037ZM8.14672 14.272C7.8138 13.8962 7.64289 13.403 7.67152 12.9006H7.66642C7.68745 12.5312 7.81564 12.1761 8.03517 11.8791C8.2547 11.5821 8.55596 11.3562 8.90177 11.2293C9.24757 11.1024 9.62278 11.0801 9.98107 11.165C10.3394 11.25 10.6651 11.4386 10.918 11.7074C11.1709 11.9763 11.3399 12.3137 11.4042 12.678C11.4684 13.0423 11.4252 13.4176 11.2797 13.7575C11.1342 14.0973 10.8929 14.387 10.5855 14.5906C10.2781 14.7942 9.91817 14.9029 9.55003 14.9032H9.44684C8.94699 14.874 8.47915 14.6464 8.14608 14.2707M7.55176 1.90675C7.68684 1.8383 7.79176 1.72181 7.84615 1.57994C7.90053 1.43807 7.90049 1.28094 7.84604 1.1391C7.79158 0.997252 7.68659 0.880825 7.55148 0.812444C7.41637 0.744062 7.26079 0.728611 7.11498 0.769095C6.96916 0.809578 6.84354 0.903103 6.76251 1.03149C6.68148 1.15988 6.65085 1.31396 6.67656 1.46379C6.70226 1.61362 6.78248 1.74849 6.90161 1.84218C7.02075 1.93588 7.17029 1.98171 7.32117 1.97077C7.40148 1.96493 7.47985 1.94317 7.55176 1.90675ZM20.674 1.9426C20.5278 1.94379 20.3861 1.89215 20.2747 1.79712C20.1632 1.70208 20.0895 1.56996 20.0668 1.42484C20.0442 1.27971 20.0742 1.13124 20.1513 1.00648C20.2285 0.881723 20.3477 0.788977 20.4872 0.745147C20.6267 0.701316 20.7772 0.709317 20.9113 0.767693C21.0454 0.826069 21.1542 0.930934 21.2179 1.06318C21.2815 1.19542 21.2957 1.34624 21.258 1.48816C21.2202 1.63007 21.133 1.75363 21.0122 1.83632C20.9124 1.90456 20.7947 1.94155 20.674 1.9426ZM13.9269 1.55847C14.1062 1.5681 14.2833 1.51492 14.428 1.40798C14.5726 1.30104 14.6759 1.14698 14.7202 0.972065C14.7645 0.797147 14.747 0.612208 14.6708 0.448786C14.5946 0.285363 14.4643 0.153578 14.3022 0.0759043C14.1401 -0.00176983 13.9562 -0.0205225 13.7819 0.0228442C13.6075 0.066211 13.4536 0.169011 13.3462 0.313715C13.2389 0.458418 13.1848 0.636062 13.1933 0.816354C13.2017 0.996645 13.2721 1.16842 13.3924 1.30238C13.5298 1.45556 13.722 1.54767 13.9269 1.55847Z"
    fill="#0056B3"
  />
</svg>
