<svg
  xmlns="http://www.w3.org/2000/svg"
  width="119"
  height="120"
  viewBox="0 0 119 120"
  fill="none"
>
  <g clip-path="url(#clip0_59_4743)">
    <path
      d="M35.5328 22.901C36.0682 23.7565 36.2503 24.6038 36.0792 25.4455C35.9081 26.2845 35.3948 27.0324 34.542 27.6837C33.9459 28.1391 33.3139 28.4013 32.6432 28.4648C31.9726 28.5283 31.3157 28.3958 30.6699 28.0646C30.0241 27.7334 29.4335 27.2256 28.8981 26.5467L28.3627 25.8485C27.8218 25.142 27.4713 24.4272 27.3112 23.6958C27.1484 22.9672 27.1898 22.2773 27.4354 21.6287C27.6811 20.9801 28.1088 20.4199 28.7215 19.9507C29.5467 19.3187 30.3829 19.0345 31.2274 19.0952C32.0719 19.1559 32.8502 19.5643 33.5595 20.3205L32.2651 21.3113C31.7932 20.8201 31.3378 20.5524 30.9045 20.5082C30.4712 20.464 30.0103 20.6269 29.5246 20.9994C28.9589 21.4327 28.6829 21.9709 28.6967 22.6167C28.7105 23.2625 29.0196 23.9856 29.624 24.7887L30.1318 25.4511C30.75 26.2597 31.3682 26.7647 31.9836 26.969C32.5991 27.1732 33.1841 27.06 33.7416 26.6323C34.2522 26.2404 34.5475 25.8347 34.6275 25.4069C34.7076 24.9819 34.5779 24.4741 34.2384 23.889L35.5328 22.8982V22.901Z"
      fill="white"
    />
    <path
      d="M42.2281 22.9284L40.7599 23.6349L36.6836 15.1457L38.1518 14.4392L42.2281 22.9284Z"
      fill="white"
    />
    <path
      d="M50.5186 11.7982L47.6732 12.5296L49.6907 20.373L48.1176 20.7787L46.1001 12.9353L43.2823 13.6611L42.9539 12.3833L50.1902 10.5204L50.5186 11.7982Z"
      fill="white"
    />
    <path
      d="M57.708 19.3075L56.0797 19.393L55.5801 9.98753L57.2084 9.90198L57.708 19.3075Z"
      fill="white"
    />
    <path
      d="M63.6471 18.2035L68.6286 18.9211L68.4437 20.2154L61.5027 19.2164L61.6545 18.1677L67.4778 11.8973L62.6895 11.2074L62.8771 9.90198L69.6304 10.8734L69.4842 11.8973L63.6471 18.2063V18.2035Z"
      fill="white"
    />
    <path
      d="M78.5005 19.3987L74.9182 17.9415L73.8281 20.6268L78.0175 22.3296L77.5263 23.5412L71.8217 21.223L75.3681 12.4991L81.0313 14.8008L80.5345 16.0234L76.3865 14.3372L75.4067 16.7465L78.989 18.2037L78.5033 19.4015L78.5005 19.3987Z"
      fill="white"
    />
    <path
      d="M86.4985 29.679L85.1903 28.6965L85.8499 20.8338L81.8343 26.174L80.5262 25.1915L86.1838 17.6627L87.492 18.6452L86.8269 26.5383L90.8562 21.176L92.1533 22.1502L86.4957 29.679H86.4985Z"
      fill="white"
    />
    <path
      d="M31.244 97.1653L29.2376 100.024L27.899 99.0834L33.3083 91.3752L36.2586 93.4451C37.1196 94.0495 37.6468 94.7532 37.8372 95.5591C38.0276 96.3622 37.8648 97.1349 37.3459 97.8718C36.816 98.628 36.1537 99.042 35.3644 99.1137C34.5751 99.1855 33.7306 98.9095 32.8391 98.283L31.2467 97.1653H31.244ZM32.0029 96.0834L33.6119 97.2122C34.0893 97.5462 34.5309 97.6897 34.9394 97.6427C35.3478 97.5958 35.7011 97.3585 35.9964 96.9362C36.2889 96.5195 36.3938 96.0972 36.3165 95.6695C36.2392 95.2417 35.9771 94.8691 35.5382 94.549L33.8906 93.3926L32.0029 96.0834Z"
      fill="white"
    />
    <path
      d="M47.2344 104.098C46.917 104.964 46.4892 105.671 45.9511 106.215C45.4129 106.758 44.8002 107.106 44.1158 107.252C43.4313 107.399 42.7248 107.341 42.0018 107.076C41.2842 106.814 40.7102 106.405 40.2769 105.85C39.8436 105.296 39.5924 104.639 39.5234 103.877C39.4544 103.118 39.5731 102.312 39.8767 101.465L40.0588 100.968C40.3735 100.104 40.804 99.4006 41.3532 98.8514C41.8996 98.3022 42.5151 97.9545 43.2023 97.8082C43.8867 97.6619 44.5905 97.7199 45.3108 97.9821C46.0311 98.2442 46.6079 98.6527 47.0384 99.2019C47.469 99.7511 47.7174 100.408 47.7836 101.167C47.8498 101.929 47.7284 102.74 47.4165 103.604L47.2371 104.095L47.2344 104.098ZM45.8655 103.074C46.2243 102.094 46.3126 101.275 46.1332 100.618C45.9538 99.9608 45.5233 99.5055 44.8416 99.2571C44.1765 99.0142 43.5638 99.086 42.9981 99.4696C42.4323 99.8532 41.9742 100.518 41.6181 101.468L41.4305 101.978C41.0745 102.95 40.9889 103.772 41.1766 104.44C41.3615 105.108 41.7893 105.566 42.4626 105.812C43.1443 106.06 43.7625 105.991 44.3173 105.607C44.872 105.224 45.3329 104.531 45.6972 103.535L45.8655 103.074Z"
      fill="white"
    />
    <path
      d="M55.1634 106.168L53.3474 106.005L53.0217 109.612L51.3907 109.466L52.238 100.085L55.5359 100.383C56.6178 100.48 57.4319 100.8 57.9756 101.338C58.5193 101.876 58.7511 102.608 58.6683 103.527C58.6104 104.153 58.4117 104.666 58.0722 105.061C57.73 105.458 57.2802 105.745 56.7171 105.922L58.4696 110.018L58.4614 110.1L56.7144 109.943L55.1606 106.165L55.1634 106.168ZM53.4661 104.688L55.1413 104.84C55.6905 104.89 56.1321 104.791 56.466 104.542C56.7999 104.294 56.9904 103.93 57.0318 103.447C57.0759 102.944 56.9683 102.541 56.7089 102.241C56.4467 101.94 56.0355 101.76 55.4697 101.7L53.7503 101.545L53.4661 104.688Z"
      fill="white"
    />
    <path
      d="M68.888 100.869L65.9819 101.294L67.1576 109.306L65.5514 109.54L64.3757 101.528L61.4944 101.951L61.304 100.645L68.6948 99.5607L68.8853 100.866L68.888 100.869Z"
      fill="white"
    />
    <path
      d="M78.4729 103.676L75.0865 105.036L75.1969 107.355L73.6183 107.989L73.4086 97.9242L74.7719 97.3778L81.5915 104.788L80.0073 105.425L78.4756 103.678L78.4729 103.676ZM75.0203 103.64L77.5538 102.621L74.8299 99.5056L75.0203 103.64Z"
      fill="white"
    />
    <path
      d="M86.5481 100.113L90.0145 97.6122L90.7789 98.6719L85.9851 102.13L80.4765 94.4908L81.804 93.5331L86.5481 100.113Z"
      fill="white"
    />
    <path
      d="M58.0032 0.0191635C54.2222 0.157155 48.0402 0.902308 45.722 1.45427C34.1583 4.35209 25.2717 9.23698 17.4062 17.0473C14.7567 19.6967 11.031 24.0572 10.7274 24.9128C10.6446 25.1336 10.479 25.382 10.3962 25.4648C9.29226 26.2375 5.09733 34.655 3.46903 39.2639C-0.587915 50.7448 -1.11228 64.0747 2.03392 75.6936C2.25471 76.5215 2.44789 77.3219 2.50309 77.4875C2.88947 79.171 4.49017 83.2003 5.98047 86.3189C10.1478 94.9296 15.4467 101.443 23.0914 107.432C27.5899 110.937 29.8254 112.372 33.9375 114.304C43.0173 118.636 49.9997 120.154 60.0731 119.989C65.9515 119.906 69.1529 119.492 73.8722 118.195C80.5786 116.346 87.7817 112.924 92.915 109.143C98.821 104.782 104.506 98.7657 108.563 92.5837C112.289 86.8433 116.291 76.8803 117.063 71.4159C117.146 70.8087 117.284 70.1187 117.367 69.8704C117.726 68.6284 118.223 61.8945 118.167 58.9967C118.085 55.7952 117.836 52.3179 117.588 51.0483C117.505 50.524 116.953 47.8745 116.787 47.1294C116.76 46.9638 116.649 46.3566 116.539 45.7495C115.822 42.0513 113.779 36.3109 111.682 32.1987C110.136 29.1629 106.825 23.9469 104.92 21.4906C103.264 19.3379 99.6214 15.695 97.4687 13.9563C96.2544 12.9903 95.0401 11.9968 94.7641 11.776C91.9215 9.45777 82.4001 4.2141 81.0201 4.2141C80.8546 4.2141 80.3302 4.04851 79.861 3.82772C77.9843 2.99978 72.6303 1.50947 69.8704 1.0679C65.1235 0.295146 60.6802 -0.0912296 58.0032 0.0191635ZM69.1805 4.62807C74.3966 5.64921 80.7166 7.80187 84.8011 9.89934C87.8369 11.4448 91.5351 13.8183 92.915 15.0602C93.1358 15.281 94.4605 16.3297 95.8128 17.4061C98.1587 19.2276 101.774 23.0637 103.651 25.6579C104.893 27.369 108.094 32.7783 109.281 35.1241C111.323 39.2363 113.448 46.3842 114.193 51.5451C114.331 52.5939 114.524 55.5745 114.607 58.1687C114.8 63.1364 114.58 65.8962 113.614 70.8639C113.448 71.6091 113.31 72.4922 113.255 72.7958C112.482 77.1839 108.867 85.8773 105.886 90.5967C99.9526 99.9801 91.3143 107.514 81.3513 112.013C76.218 114.304 70.8088 115.849 65.3443 116.539C62.4465 116.898 54.4706 116.898 52.7043 116.539C51.9868 116.401 50.8552 116.235 50.1929 116.153C45.4736 115.573 35.8418 112.096 31.9228 109.529C31.3985 109.198 30.0186 108.315 28.887 107.57C24.1953 104.534 18.5377 99.2901 15.1155 94.7088C11.9693 90.5415 7.93995 83.1727 6.97401 79.8609C6.72562 79.0606 6.42204 78.2326 6.31165 78.067C5.89768 77.5703 4.65576 72.1886 4.15899 68.9596C4.07619 68.3525 3.9658 67.7729 3.9106 67.6901C3.80021 67.4969 3.46903 62.612 3.38623 59.8246C3.27584 56.6508 4.07619 49.5856 4.90414 46.3014C8.51951 31.8124 17.2958 19.5035 29.3286 11.9968C35.759 7.99506 43.4865 5.23524 51.1036 4.2141C52.4835 4.04851 53.7807 3.85532 54.0014 3.80013C54.2222 3.71733 56.9545 3.74493 60.0731 3.80013C64.6544 3.91052 66.3931 4.04851 69.1805 4.62807Z"
      fill="white"
    />
    <path
      d="M56.4854 24.2229C56.2646 24.2781 55.1331 24.4437 54.0015 24.6369C49.6962 25.2993 44.7837 27.0656 41.0304 29.301C38.1877 30.9845 37.139 31.8125 34.462 34.4067C30.7362 38.0221 28.1144 41.9134 26.2101 46.5775C24.3886 51.0485 24.0022 52.9527 23.7538 58.7484C23.3951 66.5587 25.2994 73.3203 29.8255 80.1922C32.5853 84.3596 38.4085 89.548 42.9346 91.8111C47.0468 93.881 52.5388 95.3437 57.4513 95.6472C61.6187 95.9232 68.5458 94.7917 71.3333 93.3842C71.9128 93.1082 72.796 92.7218 73.3479 92.5562C75.7766 91.7835 81.2686 87.8921 84.1664 84.9115C88.9961 79.9162 92.8599 72.3819 93.6051 66.4483C93.6602 65.8411 93.8534 64.6544 94.019 63.854C94.7366 60.0179 94.0742 53.1459 92.5287 48.675C88.4994 37.0009 80.4683 29.2458 68.9046 25.7961C65.7584 24.8577 65.234 24.7473 61.7291 24.3609C59.4936 24.1126 57.3685 24.0574 56.4854 24.2229ZM64.7649 27.8107C68.1595 28.5283 70.5881 29.3286 73.1823 30.6257C82.1794 35.1243 88.113 42.9898 90.3485 53.3115C90.9832 56.2645 91.0108 56.8993 90.8728 61.3426C90.79 64.3784 90.5692 66.7243 90.2933 67.6902C88.4442 74.3138 86.3191 78.2327 82.2346 82.5933C78.1224 87.009 72.4096 90.4036 66.6967 91.8939C64.0473 92.5838 63.3849 92.639 58.8312 92.639C54.2775 92.639 53.5876 92.5562 51.1037 91.8939C47.9299 91.0383 42.4103 88.4165 40.3404 86.733C39.5952 86.1258 38.6017 85.3807 38.1325 85.0495C37.2218 84.3596 34.1032 80.9098 32.4197 78.6743C28.7767 73.8446 26.5137 65.9239 26.7897 58.9968C27.2312 48.537 31.3158 40.4231 39.3745 34.0203C44.1214 30.2394 49.6962 28.1143 57.0373 27.2864C58.6932 27.0932 62.6398 27.3692 64.7649 27.8107ZM83.3937 36.5042C83.4765 36.6422 83.4213 36.7802 83.2833 36.7802C83.1177 36.7802 82.9797 36.6422 82.9797 36.5042C82.9797 36.3386 83.0349 36.2282 83.0901 36.2282C83.1729 36.2282 83.3109 36.3386 83.3937 36.5042Z"
      fill="white"
    />
    <path
      d="M103.347 62.6122C102.933 62.833 102.464 63.247 102.299 63.5229C101.636 64.7925 102.933 66.8623 104.396 66.8623C106.245 66.8623 107.294 63.8541 105.776 62.8606C104.838 62.2258 104.175 62.1706 103.347 62.6122Z"
      fill="white"
    />
    <path
      d="M12.4109 62.7225C11.4726 63.1089 10.9206 64.1576 11.1138 65.1788C11.4726 66.8899 13.5425 67.4418 14.9224 66.1723C15.8883 65.2892 15.8607 64.268 14.8396 63.2469C14.0116 62.4189 13.4597 62.3086 12.4109 62.7225Z"
      fill="white"
    />
    <path
      d="M39.2365 68.7279C39.2365 67.7316 39.4931 66.8181 40.0037 65.9846C40.517 65.1512 41.1959 64.5136 42.046 64.0748C43.8619 63.1669 45.7055 62.4879 47.5794 62.0326C49.4533 61.58 51.3548 61.3509 53.2867 61.3509C55.2186 61.3509 57.1201 61.5772 58.994 62.0326C60.868 62.4852 62.7115 63.1669 64.5275 64.0748C65.3775 64.5136 66.0564 65.1512 66.5698 65.9846C67.0831 66.8181 67.337 67.7344 67.337 68.7279V70.1327C67.337 71.0986 66.992 71.9265 66.3048 72.6137C65.6176 73.3009 64.7897 73.6459 63.8237 73.6459H42.7497C41.7838 73.6459 40.9558 73.3009 40.2686 72.6137C39.5814 71.9265 39.2365 71.0986 39.2365 70.1327V68.7279ZM74.3608 73.6459H69.8816C70.2045 73.1188 70.4446 72.5558 70.6046 71.9541C70.7647 71.3525 70.8475 70.7453 70.8475 70.1327V68.3774C70.8475 67.0886 70.4887 65.8522 69.7712 64.6682C69.0536 63.4842 68.038 62.4659 66.7188 61.6158C68.2119 61.7925 69.6166 62.0905 70.9331 62.5155C72.2495 62.9405 73.4804 63.4594 74.6202 64.0748C75.6744 64.6599 76.4775 65.3112 77.035 66.0288C77.5925 66.7463 77.8685 67.5301 77.8685 68.3774V70.1327C77.8685 71.0986 77.5235 71.9265 76.8363 72.6137C76.1491 73.3009 75.3212 73.6459 74.3552 73.6459H74.3608ZM53.2867 59.5956C51.3548 59.5956 49.7017 58.9084 48.3246 57.5313C46.9502 56.1569 46.2602 54.501 46.2602 52.5691C46.2602 50.6372 46.9474 48.9841 48.3246 47.607C49.699 46.2326 51.3548 45.5426 53.2867 45.5426C55.2186 45.5426 56.8717 46.2298 58.2489 47.607C59.626 48.9841 60.3132 50.6372 60.3132 52.5691C60.3132 54.501 59.626 56.1541 58.2489 57.5313C56.8745 58.9057 55.2186 59.5956 53.2867 59.5956ZM70.8475 52.5719C70.8475 54.5038 70.1603 56.1569 68.7831 57.534C67.4088 58.9084 65.7529 59.5984 63.821 59.5984C63.4981 59.5984 63.0896 59.5625 62.5929 59.488C62.0961 59.4135 61.6849 59.3335 61.3647 59.2451C62.154 58.3096 62.7612 57.2691 63.1862 56.1265C63.6112 54.984 63.8237 53.8 63.8237 52.5691C63.8237 51.3382 63.6112 50.1543 63.1862 49.0117C62.7612 47.8691 62.154 46.8314 61.3647 45.8931C61.7732 45.7468 62.1844 45.6502 62.5929 45.6088C63.0013 45.5674 63.4125 45.5426 63.821 45.5426C65.7529 45.5426 67.406 46.2298 68.7831 47.607C70.1603 48.9841 70.8475 50.6372 70.8475 52.5691V52.5719ZM42.7497 70.1327H63.8237V68.7279C63.8237 68.405 63.7437 68.1125 63.5809 67.8503C63.418 67.5881 63.2083 67.3811 62.9434 67.2348C61.362 66.4455 59.7668 65.8522 58.1578 65.4575C56.5488 65.0628 54.9233 64.8641 53.284 64.8641C51.6446 64.8641 50.0191 65.0628 48.4101 65.4575C46.8011 65.8522 45.206 66.4455 43.6246 67.2348C43.3624 67.3811 43.1499 67.5853 42.9871 67.8503C42.827 68.1125 42.7469 68.4078 42.7469 68.7279V70.1327H42.7497ZM53.2867 56.0824C54.2527 56.0824 55.0806 55.7374 55.7678 55.0502C56.455 54.363 56.8 53.5351 56.8 52.5691C56.8 51.6032 56.455 50.7752 55.7678 50.088C55.0806 49.4008 54.2527 49.0559 53.2867 49.0559C52.3208 49.0559 51.4928 49.4008 50.8056 50.088C50.1184 50.7752 49.7735 51.6032 49.7735 52.5691C49.7735 53.5351 50.1184 54.363 50.8056 55.0502C51.4928 55.7374 52.3208 56.0824 53.2867 56.0824Z"
      fill="white"
    />
  </g>
  <defs>
    <clipPath id="clip0_59_4743">
      <rect
        width="118.17"
        height="120"
        fill="white"
      />
    </clipPath>
  </defs>
</svg>
