<svg
  xmlns="http://www.w3.org/2000/svg"
  width="36"
  height="36"
  viewBox="0 0 36 36"
  fill="none"
>
  <g clip-path="url(#clip0_1004_4643)">
    <path
      d="M10.6599 6.87071C10.8205 7.12737 10.8751 7.38155 10.8238 7.63407C10.7725 7.88577 10.6185 8.11014 10.3626 8.30554C10.1838 8.44215 9.99418 8.52081 9.79299 8.53985C9.5918 8.55889 9.39475 8.51915 9.20101 8.4198C9.00727 8.32044 8.83009 8.1681 8.66946 7.96443L8.50884 7.75495C8.34656 7.543 8.24142 7.32856 8.19339 7.10916C8.14455 6.89058 8.15697 6.68359 8.23065 6.48902C8.30434 6.29445 8.43267 6.12638 8.61648 5.98563C8.86403 5.79603 9.1149 5.71075 9.36825 5.72897C9.6216 5.74718 9.85509 5.86972 10.0679 6.09657L9.67956 6.39381C9.53798 6.24643 9.40137 6.16612 9.27138 6.15288C9.1414 6.13963 9.00313 6.18848 8.85741 6.30025C8.68768 6.43024 8.60489 6.59169 8.60902 6.78543C8.61316 6.97917 8.70589 7.19609 8.88721 7.43702L9.03956 7.63573C9.22502 7.87832 9.41048 8.02983 9.59511 8.0911C9.77974 8.15237 9.95527 8.11842 10.1225 7.99009C10.2757 7.87252 10.3643 7.75081 10.3883 7.62248C10.4123 7.49498 10.3734 7.34264 10.2715 7.16711L10.6599 6.86988V6.87071Z"
      fill="#2B2B2B"
    />
    <path
      d="M12.6685 6.87904L12.228 7.091L11.0051 4.54423L11.4456 4.33228L12.6685 6.87904Z"
      fill="#2B2B2B"
    />
    <path
      d="M15.1556 3.53983L14.302 3.75924L14.9073 6.11227L14.4353 6.23398L13.8301 3.88095L12.9848 4.0987L12.8862 3.71536L15.0571 3.15649L15.1556 3.53983Z"
      fill="#2B2B2B"
    />
    <path
      d="M17.3124 5.79284L16.8239 5.8185L16.6741 2.99686L17.1626 2.97119L17.3124 5.79284Z"
      fill="#2B2B2B"
    />
    <path
      d="M19.0941 5.46166L20.5886 5.67692L20.5331 6.06523L18.4508 5.76552L18.4963 5.4509L20.2433 3.5698L18.8068 3.36281L18.8631 2.97119L20.8891 3.26263L20.8452 3.5698L19.0941 5.46249V5.46166Z"
      fill="#2B2B2B"
    />
    <path
      d="M23.5501 5.82011L22.4755 5.38296L22.1484 6.18855L23.4053 6.69939L23.2579 7.06286L21.5465 6.36739L22.6104 3.75024L24.3094 4.44075L24.1603 4.80753L22.9159 4.30166L22.622 5.02446L23.6967 5.46161L23.551 5.82094L23.5501 5.82011Z"
      fill="#2B2B2B"
    />
    <path
      d="M25.9496 8.9042L25.5572 8.60945L25.7551 6.25063L24.5504 7.85271L24.158 7.55796L25.8553 5.29932L26.2477 5.59407L26.0482 7.962L27.257 6.35329L27.6461 6.64556L25.9488 8.9042H25.9496Z"
      fill="#2B2B2B"
    />
    <path
      d="M9.37335 29.1499L8.77143 30.0076L8.36987 29.7253L9.99265 27.4128L10.8777 28.0338C11.136 28.2151 11.2942 28.4263 11.3513 28.668C11.4084 28.9089 11.3596 29.1408 11.2039 29.3618C11.045 29.5887 10.8463 29.7129 10.6095 29.7344C10.3727 29.7559 10.1193 29.6731 9.8519 29.4852L9.37417 29.1499H9.37335ZM9.60103 28.8253L10.0837 29.164C10.227 29.2641 10.3594 29.3072 10.482 29.2931C10.6045 29.279 10.7105 29.2078 10.7991 29.0812C10.8868 28.9561 10.9183 28.8295 10.8951 28.7011C10.8719 28.5728 10.7933 28.461 10.6616 28.365L10.1673 28.0181L9.60103 28.8253Z"
      fill="#2B2B2B"
    />
    <path
      d="M14.1702 31.2298C14.075 31.4898 13.9466 31.7017 13.7852 31.8648C13.6237 32.0279 13.4399 32.1323 13.2346 32.1761C13.0293 32.22 12.8173 32.2026 12.6004 32.1232C12.3851 32.0445 12.2129 31.922 12.0829 31.7555C11.953 31.5891 11.8776 31.3921 11.8569 31.1636C11.8362 30.9359 11.8718 30.6941 11.9629 30.4399L12.0175 30.2909C12.1119 30.0318 12.2411 29.8206 12.4058 29.6559C12.5698 29.4911 12.7544 29.3868 12.9606 29.3429C13.1659 29.299 13.377 29.3164 13.5931 29.3951C13.8092 29.4737 13.9823 29.5963 14.1114 29.761C14.2406 29.9258 14.3151 30.1228 14.335 30.3505C14.3548 30.579 14.3184 30.8224 14.2248 31.0816L14.171 31.229L14.1702 31.2298ZM13.7595 30.9226C13.8672 30.6287 13.8937 30.3828 13.8398 30.1858C13.786 29.9887 13.6569 29.8521 13.4524 29.7776C13.2528 29.7047 13.069 29.7262 12.8993 29.8413C12.7296 29.9564 12.5921 30.156 12.4853 30.4408L12.429 30.5939C12.3222 30.8854 12.2965 31.1321 12.3528 31.3325C12.4083 31.5328 12.5367 31.6703 12.7387 31.744C12.9432 31.8185 13.1286 31.7978 13.2951 31.6827C13.4615 31.5676 13.5997 31.3598 13.709 31.0609L13.7595 30.9226Z"
      fill="#2B2B2B"
    />
    <path
      d="M16.5489 31.8507L16.0041 31.8018L15.9064 32.884L15.4171 32.8401L15.6713 30.0259L16.6607 30.1153C16.9852 30.1443 17.2295 30.2403 17.3926 30.4018C17.5557 30.5632 17.6253 30.7826 17.6004 31.0583C17.583 31.2463 17.5234 31.4003 17.4216 31.5187C17.3189 31.6379 17.184 31.724 17.0151 31.777L17.5408 33.0057L17.5383 33.0305L17.0142 32.9833L16.5481 31.8498L16.5489 31.8507ZM16.0397 31.4069L16.5423 31.4524C16.7071 31.4673 16.8395 31.4375 16.9397 31.363C17.0399 31.2885 17.097 31.1792 17.1094 31.0343C17.1227 30.8836 17.0904 30.7628 17.0126 30.6725C16.9339 30.5823 16.8106 30.5284 16.6408 30.5102L16.125 30.4639L16.0397 31.4069Z"
      fill="#2B2B2B"
    />
    <path
      d="M20.6663 30.2611L19.7945 30.3886L20.1472 32.7921L19.6653 32.8625L19.3126 30.459L18.4482 30.5857L18.3911 30.194L20.6084 29.8687L20.6655 30.2603L20.6663 30.2611Z"
      fill="#2B2B2B"
    />
    <path
      d="M23.5419 31.1032L22.526 31.5114L22.5591 32.2069L22.0855 32.3973L22.0226 29.3778L22.4316 29.2139L24.4775 31.4369L24.0022 31.6282L23.5427 31.1041L23.5419 31.1032ZM22.5061 31.0925L23.2662 30.787L22.449 29.8522L22.5061 31.0925Z"
      fill="#2B2B2B"
    />
    <path
      d="M25.9644 30.0341L27.0043 29.284L27.2337 29.6019L25.7955 30.6394L24.1429 28.3476L24.5412 28.0603L25.9644 30.0341Z"
      fill="#2B2B2B"
    />
    <path
      d="M17.4012 0.00605423C16.2669 0.0474516 14.4123 0.270998 13.7168 0.436587C10.2477 1.30593 7.58175 2.7714 5.2221 5.11449C4.42727 5.90932 3.30954 7.21748 3.21847 7.47414C3.19363 7.54038 3.14395 7.61489 3.11911 7.63973C2.78794 7.87156 1.52945 10.3968 1.04097 11.7795C-0.176118 15.2237 -0.333428 19.2227 0.610432 22.7084C0.676668 22.9568 0.734625 23.1969 0.751184 23.2465C0.867096 23.7516 1.34731 24.9604 1.7944 25.896C3.0446 28.4792 4.63426 30.4331 6.92767 32.2298C8.27723 33.2813 8.94787 33.7118 10.1815 34.2914C12.9055 35.5913 15.0002 36.0466 18.0222 35.9969C19.7857 35.9721 20.7461 35.8479 22.1619 35.4588C24.1738 34.9041 26.3348 33.8774 27.8748 32.7431C29.6466 31.435 31.3521 29.63 32.5692 27.7754C33.687 26.0533 34.8875 23.0644 35.1193 21.4251C35.1441 21.2429 35.1855 21.0359 35.2104 20.9614C35.318 20.5888 35.467 18.5686 35.4505 17.6993C35.4256 16.7389 35.3511 15.6957 35.2766 15.3148C35.2518 15.1575 35.0862 14.3627 35.0365 14.1391C35.0282 14.0894 34.9951 13.9073 34.962 13.7252C34.7467 12.6157 34.134 10.8936 33.5048 9.65993C33.0411 8.74918 32.0476 7.18436 31.4763 6.44749C30.9796 5.80169 29.8867 4.7088 29.2409 4.18719C28.8766 3.89741 28.5123 3.59935 28.4295 3.53311C27.5767 2.83764 24.7203 1.26453 24.3063 1.26453C24.2566 1.26453 24.0993 1.21486 23.9586 1.14862C23.3956 0.900238 21.7893 0.453146 20.9614 0.320674C19.5373 0.088849 18.2043 -0.0270637 17.4012 0.00605423ZM20.7544 1.38873C22.3192 1.69507 24.2152 2.34087 25.4406 2.97011C26.3513 3.43376 27.4608 4.14579 27.8748 4.51837C27.941 4.58461 28.3384 4.89923 28.7441 5.22213C29.4479 5.76857 30.5325 6.91942 31.0955 7.69769C31.4681 8.21102 32.4285 9.83379 32.7845 10.5375C33.3972 11.7712 34.0347 13.9156 34.2582 15.4638C34.2996 15.7785 34.3576 16.6726 34.3824 17.4509C34.4404 18.9412 34.3741 19.7692 34.0844 21.2595C34.0347 21.483 33.9933 21.748 33.9767 21.839C33.7449 23.1555 32.6603 25.7635 31.7661 27.1793C29.986 29.9943 27.3945 32.2546 24.4057 33.6042C22.8657 34.2914 21.2429 34.755 19.6036 34.962C18.7342 35.0696 16.3414 35.0696 15.8116 34.962C15.5963 34.9206 15.2568 34.8709 15.0581 34.8461C13.6423 34.6722 10.7528 33.629 9.57711 32.859C9.4198 32.7597 9.00582 32.4947 8.66636 32.2712C7.25885 31.3604 5.56156 29.7873 4.53491 28.4129C3.59104 27.1627 2.38224 24.9521 2.09246 23.9586C2.01794 23.7185 1.92687 23.4701 1.89375 23.4204C1.76956 23.2714 1.39698 21.6569 1.24795 20.6882C1.22311 20.506 1.19 20.3322 1.17344 20.3073C1.14032 20.2494 1.04097 18.7839 1.01613 17.9477C0.983009 16.9955 1.22311 14.876 1.4715 13.8907C2.55611 9.54401 5.18898 5.85137 8.79884 3.59935C10.728 2.39882 13.0462 1.57088 15.3313 1.26453C15.7453 1.21486 16.1345 1.1569 16.2007 1.14034C16.2669 1.1155 17.0866 1.12378 18.0222 1.14034C19.3966 1.17346 19.9182 1.21486 20.7544 1.38873Z"
      fill="#2B2B2B"
    />
    <path
      d="M16.9459 7.26717C16.8796 7.28372 16.5402 7.3334 16.2007 7.39136C14.9091 7.59007 13.4354 8.11995 12.3093 8.79059C11.4566 9.29564 11.1419 9.54402 10.3388 10.3223C9.2211 11.4069 8.43455 12.5743 7.86327 13.9735C7.31682 15.3148 7.20091 15.8861 7.12639 17.6248C7.01876 19.9679 7.59004 21.9964 8.94788 24.0579C9.77583 25.3081 11.5228 26.8647 12.8806 27.5436C14.1143 28.1646 15.7619 28.6034 17.2356 28.6945C18.4858 28.7773 20.564 28.4378 21.4002 28.0155C21.5741 27.9327 21.839 27.8168 22.0046 27.7672C22.7332 27.5353 24.3808 26.3679 25.2502 25.4737C26.6991 23.9752 27.8582 21.7149 28.0818 19.9348C28.0983 19.7526 28.1563 19.3966 28.2059 19.1565C28.4212 18.0056 28.2225 15.9441 27.7589 14.6028C26.55 11.1006 24.1407 8.77403 20.6716 7.7391C19.7278 7.45759 19.5704 7.42448 18.519 7.30856C17.8483 7.23405 17.2108 7.21749 16.9459 7.26717ZM19.4297 8.3435C20.4481 8.55876 21.1767 8.79887 21.9549 9.188C24.654 10.5376 26.4341 12.8972 27.1048 15.9937C27.2952 16.8796 27.3035 17.0701 27.2621 18.4031C27.2372 19.3138 27.171 20.0176 27.0882 20.3073C26.5335 22.2944 25.896 23.4701 24.6706 24.7783C23.437 26.103 21.7231 27.1214 20.0093 27.5684C19.2144 27.7754 19.0157 27.792 17.6496 27.792C16.2835 27.792 16.0765 27.7672 15.3314 27.5684C14.3792 27.3118 12.7233 26.5252 12.1024 26.0202C11.8788 25.838 11.5808 25.6145 11.44 25.5151C11.1668 25.3082 10.2312 24.2732 9.72615 23.6026C8.63326 22.1537 7.95434 19.7775 8.03713 17.6993C8.16961 14.5614 9.39497 12.1272 11.8126 10.2064C13.2366 9.07209 14.9091 8.43457 17.1114 8.18619C17.6082 8.12823 18.7922 8.21103 19.4297 8.3435ZM25.0183 10.9515C25.0432 10.9929 25.0266 11.0343 24.9852 11.0343C24.9355 11.0343 24.8942 10.9929 24.8942 10.9515C24.8942 10.9019 24.9107 10.8687 24.9273 10.8687C24.9521 10.8687 24.9935 10.9019 25.0183 10.9515Z"
      fill="#2B2B2B"
    />
    <path
      d="M31.0044 18.7838C30.8802 18.85 30.7395 18.9742 30.6898 19.057C30.4911 19.4378 30.8802 20.0588 31.319 20.0588C31.8738 20.0588 32.1884 19.1563 31.733 18.8583C31.4515 18.6678 31.2528 18.6513 31.0044 18.7838Z"
      fill="#2B2B2B"
    />
    <path
      d="M3.72353 18.8169C3.44202 18.9328 3.27644 19.2474 3.33439 19.5538C3.44202 20.0671 4.06299 20.2327 4.47696 19.8518C4.76674 19.5869 4.75846 19.2805 4.45212 18.9742C4.20374 18.7258 4.03815 18.6927 3.72353 18.8169Z"
      fill="#2B2B2B"
    />
    <path
      d="M11.7711 20.6187C11.7711 20.3198 11.8481 20.0457 12.0013 19.7957C12.1553 19.5457 12.359 19.3544 12.614 19.2228C13.1588 18.9504 13.7118 18.7467 14.274 18.6101C14.8362 18.4743 15.4066 18.4056 15.9862 18.4056C16.5658 18.4056 17.1362 18.4735 17.6984 18.6101C18.2606 18.7459 18.8136 18.9504 19.3584 19.2228C19.6134 19.3544 19.8171 19.5457 19.9711 19.7957C20.1251 20.0457 20.2013 20.3206 20.2013 20.6187V21.0401C20.2013 21.3299 20.0978 21.5783 19.8916 21.7844C19.6855 21.9906 19.4371 22.0941 19.1473 22.0941H12.8251C12.5353 22.0941 12.2869 21.9906 12.0808 21.7844C11.8746 21.5783 11.7711 21.3299 11.7711 21.0401V20.6187ZM22.3084 22.0941H20.9647C21.0615 21.9359 21.1336 21.767 21.1816 21.5865C21.2296 21.4061 21.2544 21.2239 21.2544 21.0401V20.5135C21.2544 20.1269 21.1468 19.756 20.9315 19.4008C20.7163 19.0456 20.4116 18.7401 20.0158 18.4851C20.4637 18.538 20.8852 18.6275 21.2801 18.755C21.675 18.8825 22.0443 19.0381 22.3862 19.2228C22.7025 19.3983 22.9434 19.5937 23.1107 19.8089C23.2779 20.0242 23.3607 20.2593 23.3607 20.5135V21.0401C23.3607 21.3299 23.2572 21.5783 23.0511 21.7844C22.8449 21.9906 22.5965 22.0941 22.3068 22.0941H22.3084ZM15.9862 17.879C15.4066 17.879 14.9107 17.6728 14.4976 17.2597C14.0852 16.8474 13.8782 16.3506 13.8782 15.771C13.8782 15.1915 14.0844 14.6955 14.4976 14.2824C14.9099 13.8701 15.4066 13.6631 15.9862 13.6631C16.5658 13.6631 17.0617 13.8692 17.4749 14.2824C17.888 14.6955 18.0942 15.1915 18.0942 15.771C18.0942 16.3506 17.888 16.8465 17.4749 17.2597C17.0625 17.672 16.5658 17.879 15.9862 17.879ZM21.2544 15.7719C21.2544 16.3514 21.0483 16.8474 20.6351 17.2605C20.2228 17.6728 19.726 17.8798 19.1465 17.8798C19.0496 17.8798 18.9271 17.8691 18.778 17.8467C18.629 17.8244 18.5056 17.8003 18.4096 17.7738C18.6464 17.4932 18.8285 17.181 18.956 16.8383C19.0836 16.4955 19.1473 16.1403 19.1473 15.771C19.1473 15.4018 19.0836 15.0466 18.956 14.7038C18.8285 14.361 18.6464 14.0497 18.4096 13.7682C18.5321 13.7244 18.6555 13.6954 18.778 13.683C18.9006 13.6705 19.0239 13.6631 19.1465 13.6631C19.726 13.6631 20.222 13.8692 20.6351 14.2824C21.0483 14.6955 21.2544 15.1915 21.2544 15.771V15.7719ZM12.8251 21.0401H19.1473V20.6187C19.1473 20.5218 19.1233 20.434 19.0744 20.3554C19.0256 20.2767 18.9627 20.2146 18.8832 20.1708C18.4088 19.934 17.9302 19.756 17.4475 19.6376C16.9648 19.5192 16.4772 19.4595 15.9854 19.4595C15.4936 19.4595 15.0059 19.5192 14.5232 19.6376C14.0405 19.756 13.562 19.934 13.0876 20.1708C13.0089 20.2146 12.9451 20.2759 12.8963 20.3554C12.8483 20.434 12.8243 20.5226 12.8243 20.6187V21.0401H12.8251ZM15.9862 16.825C16.276 16.825 16.5244 16.7215 16.7305 16.5154C16.9367 16.3092 17.0402 16.0608 17.0402 15.771C17.0402 15.4813 16.9367 15.2329 16.7305 15.0267C16.5244 14.8206 16.276 14.7171 15.9862 14.7171C15.6964 14.7171 15.448 14.8206 15.2419 15.0267C15.0357 15.2329 14.9322 15.4813 14.9322 15.771C14.9322 16.0608 15.0357 16.3092 15.2419 16.5154C15.448 16.7215 15.6964 16.825 15.9862 16.825Z"
      fill="#2B2B2B"
    />
  </g>
  <defs>
    <clipPath id="clip0_1004_4643">
      <rect
        width="35.4511"
        height="36"
        fill="white"
      />
    </clipPath>
  </defs>
</svg>
