<svg
  width="36"
  height="36"
  viewBox="0 0 36 36"
  fill="none"
  xmlns="http://www.w3.org/2000/svg"
>
<g clip-path="url(#clip0_1004_4599)">
<path
      d="M5.7336 14.0338C5.83958 14.1637 5.90582 14.3252 5.93066 14.5164C5.95549 14.7085 5.94225 14.9163 5.88926 15.1407C5.83461 15.3709 5.73443 15.563 5.58871 15.7161C5.44217 15.8693 5.26085 15.9711 5.0431 16.0217C4.82535 16.0722 4.5869 16.0688 4.32692 16.0117L4.11165 15.9612C3.69602 15.8635 3.39465 15.6872 3.20836 15.433C3.02207 15.1788 2.96991 14.8741 3.05436 14.5173C3.1264 14.2109 3.2597 13.9866 3.45344 13.8417C3.648 13.6976 3.89142 13.6405 4.18451 13.6711L4.0744 14.1397C3.7308 14.1149 3.51967 14.2672 3.44184 14.5984C3.39134 14.8129 3.43025 14.9933 3.55776 15.1407C3.68526 15.2881 3.89804 15.399 4.19528 15.4736L4.4064 15.5232C4.70364 15.5928 4.94871 15.5845 5.14245 15.4984C5.33619 15.4123 5.45955 15.2566 5.51171 15.0339C5.56967 14.7897 5.55477 14.6026 5.46866 14.4734L4.93049 14.3467L4.79719 14.913L4.43455 14.8278L4.68045 13.7854L5.73443 14.0338H5.7336Z"
      fill="#FFFFFF"
    />
<path
      d="M5.02796 9.87183L6.68468 10.7768C6.94797 10.9208 7.11108 11.1187 7.17235 11.3712C7.23361 11.6238 7.18808 11.8904 7.03491 12.171C6.88008 12.455 6.68137 12.6388 6.43796 12.7233C6.19537 12.8077 5.93953 12.7763 5.67045 12.6289L4.01538 11.7248L4.24969 11.2959L5.90807 12.2017C6.07366 12.2919 6.22352 12.3192 6.35682 12.2828C6.49012 12.2464 6.60106 12.147 6.69048 11.9831C6.8718 11.6519 6.78735 11.3903 6.43713 11.199L4.792 10.3007L5.02631 9.87183H5.02796Z"
      fill="#FFFFFF"
    />
<path
      d="M8.77771 8.73363L8.02345 9.5268L8.34221 10.1461L7.99033 10.5162L6.67969 7.79557L6.98354 7.47681L9.76711 8.65001L9.41357 9.02093L8.77771 8.73446V8.73363ZM7.83136 9.15423L8.39602 8.56059L7.26505 8.04892L7.83219 9.1534L7.83136 9.15423Z"
      fill="#FFFFFF"
    />
<path
      d="M10.8474 6.6155L10.3813 6.90197L10.9501 7.82762L10.5319 8.08428L9.05322 5.67661L9.90021 5.15666C10.1784 4.9861 10.4309 4.91655 10.6586 4.94884C10.8863 4.98113 11.0726 5.11443 11.2175 5.35123C11.316 5.51268 11.3607 5.67081 11.3491 5.8273C11.3384 5.98378 11.2812 6.13364 11.1786 6.2777L12.3352 6.94834L12.3485 6.96986L11.9005 7.24474L10.849 6.6155H10.8474ZM10.1743 6.56417L10.604 6.30005C10.7447 6.21312 10.8333 6.11045 10.8689 5.9904C10.9045 5.87035 10.8846 5.74864 10.8085 5.62528C10.729 5.49612 10.6313 5.41912 10.5146 5.39345C10.3978 5.36779 10.2662 5.39842 10.1196 5.48618L9.67832 5.75692L10.1734 6.56417H10.1743Z"
      fill="#FFFFFF"
    />
<path
      d="M13.2471 6.58972L12.4365 3.88316L13.2355 3.64388C13.4748 3.57185 13.7025 3.56192 13.9202 3.61325C14.1371 3.66458 14.3259 3.77222 14.4865 3.93781C14.6471 4.1034 14.7647 4.31204 14.8409 4.56539L14.8815 4.70117C14.9585 4.95784 14.975 5.19877 14.9311 5.42397C14.8872 5.64917 14.7862 5.84291 14.6289 6.00436C14.4716 6.16664 14.2704 6.28421 14.027 6.35707L13.2479 6.59055L13.2471 6.58972ZM13.0194 4.12161L13.6039 6.07308L13.9103 5.98118C14.157 5.90749 14.3234 5.77337 14.4087 5.57963C14.4948 5.38589 14.4956 5.14413 14.4112 4.85434L14.3665 4.70366C14.2787 4.40974 14.1471 4.20441 13.9732 4.08766C13.7993 3.97092 13.5907 3.9494 13.3481 4.02226L13.0194 4.12078V4.12161Z"
      fill="#FFFFFF"
    />
<path
      d="M16.9253 5.8116L16.4377 5.853L16.1992 3.03798L16.6869 2.99658L16.9253 5.8116Z"
      fill="#FFFFFF"
    />
<path
      d="M19.8705 5.29691L18.7843 5.16195L18.4755 5.78623L17.9688 5.7233L19.3763 3.05151L19.8134 3.10616L20.5263 6.04206L20.0179 5.97914L19.8697 5.29774L19.8705 5.29691ZM18.9697 4.78606L19.7828 4.88707L19.5212 3.6733L18.9706 4.78606H18.9697Z"
      fill="#FFFFFF"
    />
<path
      d="M23.4965 7.17685L23.0445 6.98643L22.6628 4.64996L21.8837 6.49711L21.4316 6.30668L22.5295 3.70361L22.9816 3.89404L23.3641 6.23879L24.1457 4.38419L24.5944 4.57379L23.4965 7.17685Z"
      fill="#FFFFFF"
    />
<path
      d="M26.1307 8.14586C26.2069 8.04816 26.2317 7.9455 26.2044 7.83869C26.177 7.73189 26.0951 7.5812 25.9576 7.38746C25.8202 7.19289 25.725 7.02151 25.6703 6.87248C25.5669 6.58683 25.5958 6.34093 25.7556 6.13643C25.8955 5.95677 26.0843 5.86652 26.3211 5.86404C26.5579 5.86238 26.7939 5.95263 27.0265 6.13477C27.1813 6.25566 27.2973 6.39227 27.3743 6.54378C27.4513 6.6953 27.4827 6.85178 27.4695 7.01074C27.4562 7.17054 27.3999 7.3146 27.2989 7.44293L26.9139 7.14156C27.005 7.02565 27.0398 6.90559 27.0182 6.78306C26.9967 6.66052 26.9181 6.54627 26.7823 6.44029C26.6556 6.34176 26.5364 6.29209 26.4246 6.29126C26.3128 6.29126 26.2184 6.33928 26.1431 6.43532C26.0794 6.51729 26.0636 6.61416 26.0967 6.72759C26.1299 6.84101 26.2127 6.99087 26.346 7.17799C26.4793 7.36511 26.572 7.53235 26.6258 7.67973C26.6796 7.8271 26.6978 7.96288 26.6796 8.08625C26.6622 8.20961 26.6084 8.32801 26.5198 8.44227C26.3749 8.62773 26.1886 8.71963 25.961 8.71797C25.7333 8.71632 25.4973 8.62027 25.2539 8.42985C25.0924 8.304 24.9682 8.15828 24.8797 7.99352C24.7911 7.82793 24.7505 7.66399 24.7579 7.50006C24.7654 7.33613 24.8234 7.18461 24.9326 7.04552L25.3193 7.34772C25.2208 7.47439 25.186 7.60438 25.215 7.73934C25.244 7.87429 25.3375 8.00263 25.4932 8.12433C25.6273 8.22948 25.7498 8.28164 25.8608 8.27999C25.9709 8.27833 26.0611 8.23279 26.1315 8.14338L26.1307 8.14586Z"
      fill="#FFFFFF"
    />
<path
      d="M28.165 11.5615L27.8711 11.1707L28.8729 10.4173L28.1137 9.4072L27.1119 10.1606L26.8171 9.76819L29.075 8.07007L29.3697 8.46252L28.43 9.16958L29.1892 10.1789L30.1289 9.47178L30.4229 9.86258L28.165 11.5607V11.5615Z"
      fill="#FFFFFF"
    />
<path
      d="M28.9339 13.1373L28.7302 12.6927L31.2985 11.5154L31.5022 11.96L28.9339 13.1373Z"
      fill="#FFFFFF"
    />
<path
      d="M30.5419 14.5519L29.5202 14.7854L29.4109 14.3068L32.1655 13.6768L32.4064 14.7307C32.4768 15.0387 32.4528 15.3012 32.3335 15.5189C32.2143 15.7367 32.0231 15.8758 31.7598 15.9362C31.4899 15.9983 31.2589 15.9578 31.0684 15.8145C30.878 15.6721 30.7455 15.4411 30.6727 15.1215L30.5427 14.5519H30.5419ZM30.9277 14.4633L31.0593 15.0387C31.0982 15.2093 31.1678 15.3293 31.2688 15.4005C31.3698 15.4717 31.4957 15.49 31.6463 15.4552C31.7954 15.4212 31.9038 15.3484 31.9717 15.2374C32.0396 15.1265 32.057 14.9907 32.0231 14.8317L31.8889 14.2431L30.9277 14.4633Z"
      fill="#FFFFFF"
    />
<path
      d="M5.2524 24.1444L4.32758 24.6362L4.09741 24.2023L6.59202 22.876L7.09955 23.8306C7.24775 24.1096 7.29246 24.3696 7.23451 24.6105C7.17655 24.8515 7.02752 25.0361 6.78907 25.1628C6.544 25.2928 6.31134 25.3143 6.09028 25.2257C5.86922 25.1371 5.68128 24.9492 5.52811 24.6602L5.25406 24.1444H5.2524ZM5.60262 23.9581L5.87998 24.4789C5.96195 24.6329 6.06048 24.7314 6.17639 24.7736C6.2923 24.8159 6.41815 24.801 6.55559 24.7281C6.69054 24.6561 6.77582 24.5584 6.81308 24.4333C6.84951 24.3083 6.8313 24.1734 6.75678 24.0277L6.47362 23.4945L5.60345 23.9573L5.60262 23.9581Z"
      fill="#FFFFFF"
    />
<path
      d="M7.56806 27.4496L7.19962 27.0456L6.39651 27.7775L6.06616 27.4148L8.15425 25.5122L8.82323 26.2466C9.04263 26.4875 9.15855 26.7227 9.16931 26.952C9.18007 27.1813 9.08403 27.39 8.8787 27.5763C8.73878 27.7038 8.5914 27.7766 8.43575 27.7949C8.28009 27.8131 8.12196 27.7858 7.96134 27.7112L7.51921 28.973L7.50017 28.9904L7.14581 28.6021L7.56723 27.4513L7.56806 27.4496ZM7.49189 26.779L7.83135 27.1515C7.94312 27.2741 8.06069 27.3411 8.18488 27.3544C8.30907 27.3668 8.42499 27.3246 8.53179 27.2269C8.64356 27.125 8.70152 27.0141 8.70483 26.8949C8.70814 26.7757 8.6535 26.6523 8.54007 26.524L8.1915 26.1406L7.49189 26.7781V26.779Z"
      fill="#FFFFFF"
    />
<path
      d="M11.3481 30.1142C11.1974 30.3469 11.0252 30.5249 10.8315 30.6483C10.6377 30.7716 10.4357 30.8321 10.2254 30.8296C10.0151 30.8271 9.81311 30.7625 9.61855 30.6367C9.42646 30.5125 9.28571 30.3543 9.19546 30.1631C9.10605 29.9718 9.07624 29.7632 9.10687 29.5355C9.13751 29.3086 9.22527 29.0818 9.37099 28.8541L9.4571 28.7208C9.60695 28.4898 9.78 28.3118 9.97622 28.1876C10.1724 28.0634 10.3761 28.003 10.5864 28.0054C10.7967 28.0079 10.9979 28.0717 11.1916 28.1975C11.3846 28.3225 11.5261 28.4799 11.6156 28.6695C11.705 28.8591 11.734 29.0669 11.7025 29.2946C11.671 29.5214 11.5808 29.7508 11.4326 29.9834L11.3473 30.1151L11.3481 30.1142ZM11.0161 29.7234C11.1867 29.461 11.267 29.2267 11.2587 29.023C11.2504 28.8185 11.1544 28.657 10.9722 28.5395C10.7942 28.4244 10.6096 28.4037 10.4192 28.4782C10.2287 28.5527 10.0491 28.7167 9.88183 28.9708L9.79324 29.1074C9.62434 29.3682 9.54486 29.6026 9.55397 29.8104C9.56307 30.0182 9.65829 30.1805 9.83878 30.2972C10.0209 30.4156 10.2064 30.4363 10.3952 30.361C10.5831 30.2856 10.7644 30.1142 10.9366 29.8468L11.0169 29.7226L11.0161 29.7234Z"
      fill="#FFFFFF"
    />
<path
      d="M14.7457 30.2521L13.912 29.9664L13.1254 32.2648L12.6643 32.1067L13.4508 29.8083L12.6245 29.5251L12.7528 29.1509L14.8732 29.877L14.7449 30.2512L14.7457 30.2521Z"
      fill="#FFFFFF"
    />
<path
      d="M17.2729 31.7417L16.1171 31.6358L16.0376 32.5018L17.388 32.626L17.3524 33.016L15.5127 32.8471L15.771 30.0337L17.5975 30.2009L17.561 30.595L16.2239 30.4725L16.1527 31.2491L17.3085 31.3551L17.2729 31.7417Z"
      fill="#FFFFFF"
    />
<path
      d="M20.9654 31.7381C20.9819 32.0403 20.9074 32.2895 20.741 32.4857C20.5746 32.6819 20.332 32.8036 20.0132 32.8517C19.7905 32.8856 19.5868 32.8624 19.4014 32.7821C19.2159 32.7018 19.0628 32.5718 18.941 32.3913C18.8193 32.2108 18.7374 31.9922 18.6951 31.7356L18.6554 31.4748C18.6157 31.2115 18.6272 30.9722 18.6902 30.7569C18.7531 30.5417 18.864 30.367 19.0222 30.232C19.1803 30.0971 19.3741 30.0118 19.6026 29.9778C19.9106 29.9315 20.1714 29.9778 20.385 30.1161C20.5986 30.2544 20.7435 30.4746 20.8205 30.7752L20.337 30.848C20.284 30.651 20.2028 30.5144 20.096 30.4398C19.9892 30.3653 19.8443 30.3413 19.6622 30.3686C19.4511 30.4001 19.3004 30.5019 19.211 30.6733C19.1207 30.8447 19.0975 31.0798 19.1397 31.3787L19.177 31.6263C19.2225 31.9285 19.3111 32.1504 19.4436 32.2928C19.5752 32.4352 19.7458 32.4907 19.9544 32.4592C20.1449 32.4302 20.2815 32.3657 20.3651 32.2655C20.4479 32.1653 20.4876 32.0138 20.4827 31.8101L20.9662 31.7372L20.9654 31.7381Z"
      fill="#FFFFFF"
    />
<path
      d="M23.589 29.1539L22.7768 29.4951L23.7182 31.7347L23.2694 31.9234L22.3281 29.6838L21.5233 30.0225L21.3701 29.6573L23.4367 28.7888L23.5898 29.1539H23.589Z"
      fill="#FFFFFF"
    />
<path
      d="M26.2441 30.3157L25.8384 30.589L24.2595 28.2459L24.6652 27.9727L26.2441 30.3157Z"
      fill="#FFFFFF"
    />
<path
      d="M28.2621 26.7059C28.4609 26.8989 28.6008 27.1025 28.6844 27.317C28.7672 27.5314 28.7871 27.7409 28.7432 27.947C28.6993 28.1532 28.5966 28.3387 28.4352 28.5042C28.2754 28.6682 28.0932 28.7758 27.8879 28.8255C27.6826 28.876 27.4723 28.8636 27.2554 28.7891C27.0393 28.7145 26.8331 28.5837 26.6385 28.3958L26.5243 28.2848C26.3272 28.0928 26.1865 27.8883 26.1037 27.6705C26.0209 27.4536 26.001 27.2425 26.0449 27.0363C26.0888 26.831 26.1914 26.6455 26.3521 26.4807C26.5127 26.316 26.6948 26.2083 26.8977 26.1578C27.1014 26.1073 27.3108 26.1198 27.5269 26.1951C27.7439 26.2704 27.9508 26.4037 28.1495 26.595L28.2621 26.7043V26.7059ZM27.8142 26.9543C27.5899 26.7358 27.3771 26.6107 27.1742 26.5793C26.9722 26.5478 26.795 26.6099 26.6435 26.7656C26.4953 26.9179 26.439 27.0943 26.4746 27.2963C26.5102 27.4983 26.6361 27.7061 26.8522 27.9197L26.9689 28.0331C27.1916 28.2501 27.4052 28.3734 27.6114 28.4057C27.8175 28.4372 27.9947 28.3759 28.1446 28.2219C28.2961 28.0663 28.3532 27.8891 28.3168 27.6895C28.2795 27.49 28.1471 27.2797 27.9194 27.0578L27.8134 26.9552L27.8142 26.9543Z"
      fill="#FFFFFF"
    />
<path
      d="M31.3413 24.2536L31.1054 24.6841L28.7424 24.8257L30.5001 25.7886L30.2642 26.2191L27.7861 24.8613L28.0221 24.4308L30.3942 24.29L28.629 23.323L28.8633 22.8958L31.3413 24.2536Z"
      fill="#FFFFFF"
    />
<path
      d="M17.4008 0.00605422C16.2666 0.0474516 14.412 0.270998 13.7165 0.436587C10.2474 1.30593 7.58139 2.7714 5.22174 5.11449C4.42691 5.90932 3.30918 7.21748 3.2181 7.47414C3.19326 7.54038 3.14359 7.61489 3.11875 7.63973C2.78757 7.87156 1.52909 10.3968 1.0406 11.7795C-0.176484 15.2237 -0.333794 19.2227 0.610066 22.7084C0.676302 22.9568 0.734258 23.1969 0.750817 23.2465C0.86673 23.7516 1.34694 24.9604 1.79403 25.896C3.04423 28.4792 4.63389 30.4331 6.92731 32.2298C8.27686 33.2813 8.9475 33.7118 10.1811 34.2914C12.9051 35.5913 14.9998 36.0466 18.0218 35.9969C19.7853 35.9721 20.7458 35.8479 22.1616 35.4588C24.1735 34.9041 26.3344 33.8774 27.8744 32.7431C29.6462 31.435 31.3518 29.63 32.5689 27.7754C33.6866 26.0533 34.8871 23.0644 35.1189 21.4251C35.1438 21.2429 35.1852 21.0359 35.21 20.9614C35.3176 20.5888 35.4667 18.5686 35.4501 17.6993C35.4253 16.7389 35.3508 15.6957 35.2762 15.3148C35.2514 15.1575 35.0858 14.3627 35.0361 14.1391C35.0279 14.0894 34.9947 13.9073 34.9616 13.7251C34.7464 12.6157 34.1337 10.8936 33.5044 9.65992C33.0408 8.74918 32.0472 7.18436 31.476 6.44749C30.9792 5.80169 29.8863 4.7088 29.2405 4.18719C28.8762 3.89741 28.5119 3.59935 28.4291 3.53311C27.5763 2.83764 24.7199 1.26453 24.3059 1.26453C24.2563 1.26453 24.0989 1.21486 23.9582 1.14862C23.3952 0.900238 21.789 0.453146 20.961 0.320674C19.537 0.088849 18.204 -0.0270637 17.4008 0.00605422ZM20.754 1.38873C22.3189 1.69507 24.2149 2.34087 25.4402 2.97011C26.351 3.43376 27.4604 4.14579 27.8744 4.51837C27.9406 4.58461 28.338 4.89923 28.7437 5.22213C29.4475 5.76857 30.5321 6.91942 31.0951 7.69769C31.4677 8.21102 32.4281 9.83379 32.7841 10.5375C33.3968 11.7712 34.0343 13.9156 34.2579 15.4638C34.2993 15.7785 34.3572 16.6726 34.3821 17.4509C34.44 18.9412 34.3738 19.7692 34.084 21.2595C34.0343 21.483 33.9929 21.748 33.9764 21.839C33.7445 23.1555 32.6599 25.7635 31.7657 27.1793C29.9857 29.9943 27.3942 32.2546 24.4053 33.6042C22.8653 34.2914 21.2425 34.755 19.6032 34.962C18.7338 35.0696 16.3411 35.0696 15.8112 34.962C15.5959 34.9206 15.2565 34.8709 15.0578 34.8461C13.642 34.6722 10.7524 33.629 9.57674 32.859C9.41943 32.7597 9.00546 32.4947 8.666 32.2712C7.25849 31.3604 5.56119 29.7873 4.53454 28.4129C3.59068 27.1627 2.38187 24.9521 2.09209 23.9586C2.01758 23.7185 1.9265 23.4701 1.89339 23.4204C1.76919 23.2714 1.39662 21.6569 1.24759 20.6882C1.22275 20.506 1.18963 20.3322 1.17307 20.3073C1.13995 20.2494 1.0406 18.7839 1.01576 17.9477C0.982643 16.9955 1.22275 14.876 1.47113 13.8907C2.55574 9.54401 5.18862 5.85137 8.79847 3.59935C10.7276 2.39882 13.0458 1.57088 15.331 1.26453C15.745 1.21486 16.1341 1.1569 16.2003 1.14034C16.2666 1.1155 17.0862 1.12378 18.0218 1.14034C19.3962 1.17346 19.9178 1.21486 20.754 1.38873Z"
      fill="#FFFFFF"
    />
<path
      d="M16.946 7.26717C16.8797 7.28372 16.5403 7.3334 16.2008 7.39136C14.9092 7.59007 13.4355 8.11995 12.3095 8.79059C11.4567 9.29564 11.1421 9.54402 10.339 10.3223C9.22122 11.4069 8.43467 12.5743 7.86339 13.9735C7.31694 15.3148 7.20103 15.8861 7.12651 17.6248C7.01888 19.9679 7.59017 21.9964 8.948 24.0579C9.77595 25.3081 11.5229 26.8647 12.8808 27.5436C14.1144 28.1646 15.762 28.6034 17.2358 28.6945C18.486 28.7773 20.5641 28.4378 21.4003 28.0155C21.5742 27.9327 21.8391 27.8168 22.0047 27.7672C22.7333 27.5353 24.3809 26.3679 25.2503 25.4737C26.6992 23.9752 27.8583 21.7149 28.0819 19.9348C28.0984 19.7526 28.1564 19.3966 28.2061 19.1565C28.4213 18.0056 28.2226 15.9441 27.759 14.6028C26.5502 11.1006 24.1408 8.77403 20.6717 7.7391C19.7279 7.45759 19.5706 7.42448 18.5191 7.30856C17.8484 7.23405 17.2109 7.21749 16.946 7.26717ZM19.4298 8.3435C20.4482 8.55876 21.1768 8.79887 21.9551 9.188C24.6542 10.5376 26.4343 12.8972 27.1049 15.9937C27.2953 16.8796 27.3036 17.0701 27.2622 18.4031C27.2374 19.3138 27.1711 20.0176 27.0883 20.3073C26.5336 22.2944 25.8961 23.4701 24.6707 24.7783C23.4371 26.103 21.7232 27.1214 20.0094 27.5684C19.2146 27.7754 19.0158 27.792 17.6497 27.792C16.2836 27.792 16.0766 27.7672 15.3315 27.5684C14.3793 27.3118 12.7234 26.5252 12.1025 26.0202C11.8789 25.838 11.5809 25.6145 11.4401 25.5151C11.1669 25.3082 10.2313 24.2732 9.72627 23.6026C8.63338 22.1537 7.95446 19.7775 8.03726 17.6993C8.16973 14.5614 9.39509 12.1272 11.8127 10.2064C13.2368 9.07209 14.9092 8.43457 17.1116 8.18619C17.6083 8.12823 18.7923 8.21103 19.4298 8.3435ZM25.0185 10.9515C25.0433 10.9929 25.0267 11.0343 24.9853 11.0343C24.9357 11.0343 24.8943 10.9929 24.8943 10.9515C24.8943 10.9019 24.9108 10.8687 24.9274 10.8687C24.9522 10.8687 24.9936 10.9019 25.0185 10.9515Z"
      fill="#FFFFFF"
    />
<path
      d="M31.0042 18.784C30.88 18.8502 30.7392 18.9744 30.6896 19.0572C30.4909 19.4381 30.88 20.059 31.3188 20.059C31.8735 20.059 32.1881 19.1566 31.7328 18.8585C31.4513 18.6681 31.2526 18.6515 31.0042 18.784Z"
      fill="#FFFFFF"
    />
<path
      d="M3.72365 18.8169C3.44215 18.9328 3.27656 19.2474 3.33451 19.5538C3.44215 20.0671 4.06311 20.2327 4.47708 19.8518C4.76686 19.5869 4.75858 19.2805 4.45224 18.9742C4.20386 18.7258 4.03827 18.6927 3.72365 18.8169Z"
      fill="#FFFFFF"
    />
<path
      d="M17.726 11.6313C18.2567 11.6313 18.7079 11.8168 19.0797 12.1886C19.4514 12.5603 19.6369 13.0115 19.6369 13.5423C19.6369 14.073 19.4514 14.5242 19.0797 14.8959C18.7079 15.2677 18.2567 15.4532 17.726 15.4532C17.1952 15.4532 16.744 15.2677 16.3723 14.8959C16.0005 14.5242 15.8151 14.073 15.8151 13.5423C15.8151 13.0115 16.0005 12.5603 16.3723 12.1886C16.744 11.8168 17.1952 11.6313 17.726 11.6313ZM17.726 16.0898C18.2252 16.0898 18.7187 16.1486 19.2063 16.2654C19.6948 16.3821 20.1353 16.5469 20.5277 16.7588C20.9309 16.9608 21.2547 17.1993 21.4989 17.475C21.7432 17.7507 21.8649 18.0537 21.8649 18.3824V22.0767C21.8649 22.4162 21.7663 22.7192 21.5701 22.9842C21.3739 23.2491 21.1164 23.3824 20.7977 23.3824C20.6387 23.3824 20.5004 23.3211 20.3837 23.1994C20.2669 23.0777 20.2082 22.9047 20.2082 22.682V22.427C20.2082 22.0237 19.9291 21.6942 19.3719 21.44C18.8147 21.185 18.265 21.0575 17.7243 21.0575C17.3103 21.0575 16.9013 21.1238 16.4981 21.2562C16.0949 21.3887 15.7761 21.5717 15.5427 21.8052C15.4574 21.8904 15.4367 21.9989 15.4789 22.1314C15.5211 22.2639 15.6114 22.3516 15.7497 22.3938C16.0891 22.4891 16.4319 22.5586 16.7763 22.6008C17.1207 22.6431 17.4792 22.6695 17.851 22.6803C18.0845 22.6803 18.2832 22.7623 18.4479 22.927C18.6127 23.0918 18.6947 23.2905 18.6947 23.524C18.6947 23.7575 18.6127 23.9562 18.4479 24.1209C18.2832 24.2857 18.0845 24.3677 17.851 24.3677C17.4792 24.3677 17.0495 24.3254 16.561 24.2402C16.0726 24.1549 15.6056 24.0224 15.1602 23.8419C14.7147 23.6614 14.3405 23.4255 14.0375 23.1332C13.7344 22.8409 13.5837 22.4882 13.5837 22.0743V18.38C13.5837 18.0513 13.7054 17.7482 13.9497 17.4725C14.1939 17.1968 14.5119 16.9575 14.9051 16.7563C15.3084 16.5444 15.7546 16.3796 16.2423 16.2629C16.7299 16.1461 17.2242 16.0874 17.7227 16.0874L17.726 16.0898ZM17.726 19.9108C18.0762 19.9108 18.3759 19.7858 18.6259 19.5366C18.876 19.2874 19.0002 18.9877 19.0002 18.6366C19.0002 18.2856 18.8752 17.9867 18.6259 17.7366C18.3767 17.4874 18.077 17.3624 17.726 17.3624C17.3749 17.3624 17.076 17.4874 16.826 17.7366C16.5768 17.9858 16.4518 18.2856 16.4518 18.6366C16.4518 18.9877 16.5768 19.2866 16.826 19.5366C17.0752 19.7866 17.3749 19.9108 17.726 19.9108Z"
      fill="#FFFFFF"
    />
</g>
<defs>
<clipPath id="clip0_1004_4599">
<rect
        width="35.4511"
        height="36"
        fill="#FFFFFF"
      />
</clipPath>
</defs>
</svg>
