<svg
  width="24"
  height="24"
  viewBox="0 0 24 24"
  fill="none"
  xmlns="http://www.w3.org/2000/svg"
>
<path
    d="M17.76 6.2399C17.232 6.2399 16.78 6.0519 16.404 5.6759C16.028 5.2999 15.84 4.8479 15.84 4.3199C15.84 3.7919 16.028 3.3399 16.404 2.9639C16.78 2.5879 17.232 2.3999 17.76 2.3999C18.288 2.3999 18.74 2.5879 19.116 2.9639C19.492 3.3399 19.68 3.7919 19.68 4.3199C19.68 4.8479 19.492 5.2999 19.116 5.6759C18.74 6.0519 18.288 6.2399 17.76 6.2399ZM16.8 21.5999V13.9199C16.8 13.2799 16.636 12.7039 16.308 12.1919C15.98 11.6799 15.56 11.2799 15.048 10.9919L15.888 8.5199C16.016 8.1199 16.252 7.7999 16.596 7.5599C16.94 7.3199 17.328 7.1999 17.76 7.1999C18.192 7.1999 18.58 7.3199 18.924 7.5599C19.268 7.7999 19.504 8.1199 19.632 8.5199L22.08 15.8399H19.68V21.5999H16.8ZM12.48 11.5199C12.08 11.5199 11.74 11.3799 11.46 11.0999C11.18 10.8199 11.04 10.4799 11.04 10.0799C11.04 9.6799 11.18 9.3399 11.46 9.0599C11.74 8.7799 12.08 8.6399 12.48 8.6399C12.88 8.6399 13.22 8.7799 13.5 9.0599C13.78 9.3399 13.92 9.6799 13.92 10.0799C13.92 10.4799 13.78 10.8199 13.5 11.0999C13.22 11.3799 12.88 11.5199 12.48 11.5199ZM5.76002 6.2399C5.23202 6.2399 4.78002 6.0519 4.40402 5.6759C4.02802 5.2999 3.84002 4.8479 3.84002 4.3199C3.84002 3.7919 4.02802 3.3399 4.40402 2.9639C4.78002 2.5879 5.23202 2.3999 5.76002 2.3999C6.28802 2.3999 6.74002 2.5879 7.11602 2.9639C7.49202 3.3399 7.68002 3.7919 7.68002 4.3199C7.68002 4.8479 7.49202 5.2999 7.11602 5.6759C6.74002 6.0519 6.28802 6.2399 5.76002 6.2399ZM3.84002 21.5999V14.8799H2.40002V9.1199C2.40002 8.5919 2.58802 8.1399 2.96402 7.7639C3.34002 7.3879 3.79202 7.1999 4.32002 7.1999H7.20002C7.72802 7.1999 8.18002 7.3879 8.55602 7.7639C8.93202 8.1399 9.12002 8.5919 9.12002 9.1199V14.8799H7.68002V21.5999H3.84002ZM11.04 21.5999V17.7599H10.08V13.9199C10.08 13.5199 10.22 13.1799 10.5 12.8999C10.78 12.6199 11.12 12.4799 11.52 12.4799H13.44C13.84 12.4799 14.18 12.6199 14.46 12.8999C14.74 13.1799 14.88 13.5199 14.88 13.9199V17.7599H13.92V21.5999H11.04Z"
    fill="#2B2B2B"
  />
</svg>
