<svg
  width="80"
  height="80"
  viewBox="0 0 80 80"
  fill="none"
  xmlns="http://www.w3.org/2000/svg"
>
<rect
    width="80"
    height="80"
    rx="40"
    fill="#E9F0FF"
  />
<path
    d="M52.8 27.1998C51.6266 27.1998 50.6222 26.7821 49.7866 25.9465C48.9511 25.1109 48.5333 24.1065 48.5333 22.9332C48.5333 21.7598 48.9511 20.7554 49.7866 19.9198C50.6222 19.0843 51.6266 18.6665 52.8 18.6665C53.9733 18.6665 54.9777 19.0843 55.8133 19.9198C56.6488 20.7554 57.0666 21.7598 57.0666 22.9332C57.0666 24.1065 56.6488 25.1109 55.8133 25.9465C54.9777 26.7821 53.9733 27.1998 52.8 27.1998ZM50.6666 61.3332V44.2665C50.6666 42.8443 50.3022 41.5643 49.5733 40.4265C48.8444 39.2887 47.9111 38.3998 46.7733 37.7598L48.64 32.2665C48.9244 31.3776 49.4488 30.6665 50.2133 30.1332C50.9777 29.5998 51.84 29.3332 52.8 29.3332C53.76 29.3332 54.6222 29.5998 55.3866 30.1332C56.1511 30.6665 56.6755 31.3776 56.96 32.2665L62.4 48.5332H57.0666V61.3332H50.6666ZM41.0666 38.9332C40.1777 38.9332 39.4222 38.6221 38.8 37.9998C38.1777 37.3776 37.8666 36.6221 37.8666 35.7332C37.8666 34.8443 38.1777 34.0887 38.8 33.4665C39.4222 32.8443 40.1777 32.5332 41.0666 32.5332C41.9555 32.5332 42.7111 32.8443 43.3333 33.4665C43.9555 34.0887 44.2666 34.8443 44.2666 35.7332C44.2666 36.6221 43.9555 37.3776 43.3333 37.9998C42.7111 38.6221 41.9555 38.9332 41.0666 38.9332ZM26.1333 27.1998C24.96 27.1998 23.9555 26.7821 23.12 25.9465C22.2844 25.1109 21.8666 24.1065 21.8666 22.9332C21.8666 21.7598 22.2844 20.7554 23.12 19.9198C23.9555 19.0843 24.96 18.6665 26.1333 18.6665C27.3066 18.6665 28.3111 19.0843 29.1466 19.9198C29.9822 20.7554 30.4 21.7598 30.4 22.9332C30.4 24.1065 29.9822 25.1109 29.1466 25.9465C28.3111 26.7821 27.3066 27.1998 26.1333 27.1998ZM21.8666 61.3332V46.3998H18.6666V33.5998C18.6666 32.4265 19.0844 31.4221 19.92 30.5865C20.7555 29.7509 21.76 29.3332 22.9333 29.3332H29.3333C30.5066 29.3332 31.5111 29.7509 32.3466 30.5865C33.1822 31.4221 33.6 32.4265 33.6 33.5998V46.3998H30.4V61.3332H21.8666ZM37.8666 61.3332V52.7998H35.7333V44.2665C35.7333 43.3776 36.0444 42.6221 36.6666 41.9998C37.2888 41.3776 38.0444 41.0665 38.9333 41.0665H43.2C44.0888 41.0665 44.8444 41.3776 45.4666 41.9998C46.0888 42.6221 46.4 43.3776 46.4 44.2665V52.7998H44.2666V61.3332H37.8666Z"
    fill="#1941B4"
  />
</svg>
