<svg width="25" height="24" viewBox="0 0 25 24" fill="none" xmlns="http://www.w3.org/2000/svg">
<path d="M16.775 14.25H14.975C14.8507 14.25 14.75 14.3507 14.75 14.475V16.275C14.75 16.3993 14.8507 16.5 14.975 16.5H16.775C16.8993 16.5 17 16.3993 17 16.275V14.475C17 14.3507 16.8993 14.25 16.775 14.25Z" fill="#F9FAFB"/>
<path d="M14.525 12.4492H13.175C13.0507 12.4492 12.95 12.55 12.95 12.6742V14.0242C12.95 14.1485 13.0507 14.2492 13.175 14.2492H14.525C14.6493 14.2492 14.75 14.1485 14.75 14.0242V12.6742C14.75 12.55 14.6493 12.4492 14.525 12.4492Z" fill="#F9FAFB"/>
<path d="M18.575 16.5H17.225C17.1007 16.5 17 16.6007 17 16.725V18.075C17 18.1993 17.1007 18.3 17.225 18.3H18.575C18.6993 18.3 18.8 18.1993 18.8 18.075V16.725C18.8 16.6007 18.6993 16.5 18.575 16.5Z" fill="#F9FAFB"/>
<path d="M18.575 12.4492H17.675C17.5507 12.4492 17.45 12.55 17.45 12.6742V13.5742C17.45 13.6985 17.5507 13.7992 17.675 13.7992H18.575C18.6993 13.7992 18.8 13.6985 18.8 13.5742V12.6742C18.8 12.55 18.6993 12.4492 18.575 12.4492Z" fill="#F9FAFB"/>
<path d="M14.075 16.9492H13.175C13.0507 16.9492 12.95 17.05 12.95 17.1742V18.0742C12.95 18.1985 13.0507 18.2992 13.175 18.2992H14.075C14.1993 18.2992 14.3 18.1985 14.3 18.0742V17.1742C14.3 17.05 14.1993 16.9492 14.075 16.9492Z" fill="#F9FAFB"/>
<path d="M16.775 7.5H14.975C14.8507 7.5 14.75 7.60074 14.75 7.725V9.525C14.75 9.64926 14.8507 9.75 14.975 9.75H16.775C16.8993 9.75 17 9.64926 17 9.525V7.725C17 7.60074 16.8993 7.5 16.775 7.5Z" fill="#F9FAFB"/>
<path fill-rule="evenodd" clip-rule="evenodd" d="M12.95 6.59922C12.95 6.10218 13.353 5.69922 13.85 5.69922H17.9C18.397 5.69922 18.8 6.10218 18.8 6.59922V10.6492C18.8 11.1463 18.397 11.5492 17.9 11.5492H13.85C13.353 11.5492 12.95 11.1463 12.95 10.6492V6.59922ZM17.9 6.59922H13.85V10.6492H17.9V6.59922Z" fill="#F9FAFB"/>
<path d="M10.025 7.5H8.225C8.10074 7.5 8 7.60074 8 7.725V9.525C8 9.64926 8.10074 9.75 8.225 9.75H10.025C10.1493 9.75 10.25 9.64926 10.25 9.525V7.725C10.25 7.60074 10.1493 7.5 10.025 7.5Z" fill="#F9FAFB"/>
<path fill-rule="evenodd" clip-rule="evenodd" d="M6.2 6.59922C6.2 6.10218 6.60296 5.69922 7.1 5.69922H11.15C11.647 5.69922 12.05 6.10218 12.05 6.59922V10.6492C12.05 11.1463 11.647 11.5492 11.15 11.5492H7.1C6.60296 11.5492 6.2 11.1463 6.2 10.6492V6.59922ZM11.15 6.59922H7.1V10.6492H11.15V6.59922Z" fill="#F9FAFB"/>
<path d="M10.025 14.25H8.225C8.10074 14.25 8 14.3507 8 14.475V16.275C8 16.3993 8.10074 16.5 8.225 16.5H10.025C10.1493 16.5 10.25 16.3993 10.25 16.275V14.475C10.25 14.3507 10.1493 14.25 10.025 14.25Z" fill="#F9FAFB"/>
<path fill-rule="evenodd" clip-rule="evenodd" d="M6.2 13.3492C6.2 12.8522 6.60296 12.4492 7.1 12.4492H11.15C11.647 12.4492 12.05 12.8522 12.05 13.3492V17.3992C12.05 17.8963 11.647 18.2992 11.15 18.2992H7.1C6.60296 18.2992 6.2 17.8963 6.2 17.3992V13.3492ZM11.15 13.3492H7.1V17.3992H11.15V13.3492Z" fill="#F9FAFB"/>
<path d="M3.37988 17.9998C3.37988 19.7229 4.77687 21.1199 6.5 21.1199H8.9V22.0797H6.5C4.24668 22.0797 2.42012 20.2531 2.42012 17.9998V15.5998H3.37988V17.9998ZM22.5799 17.9998C22.5799 20.2531 20.7533 22.0797 18.5 22.0797H16.1V21.1199H18.5C20.2231 21.1199 21.6201 19.7229 21.6201 17.9998V15.5998H22.5799V17.9998ZM18.5 1.91992C20.7533 1.91992 22.5799 3.74648 22.5799 5.9998V8.3998H21.6201V5.9998C21.6201 4.27667 20.2231 2.87968 18.5 2.87968H16.1V1.91992H18.5ZM8.9 2.87968H6.5C4.77687 2.87968 3.37988 4.27667 3.37988 5.9998V8.3998H2.42012V5.9998C2.42012 3.74648 4.24668 1.91992 6.5 1.91992H8.9V2.87968Z" fill="#F9FAFB"/>
</svg>
