<svg width="24" height="24" viewBox="0 0 24 24" fill="none" xmlns="http://www.w3.org/2000/svg">
<path d="M16.275 14.25H14.475C14.3507 14.25 14.25 14.3507 14.25 14.475V16.275C14.25 16.3993 14.3507 16.5 14.475 16.5H16.275C16.3993 16.5 16.5 16.3993 16.5 16.275V14.475C16.5 14.3507 16.3993 14.25 16.275 14.25Z" fill="#343B45"/>
<path d="M14.025 12.4492H12.675C12.5507 12.4492 12.45 12.55 12.45 12.6742V14.0242C12.45 14.1485 12.5507 14.2492 12.675 14.2492H14.025C14.1493 14.2492 14.25 14.1485 14.25 14.0242V12.6742C14.25 12.55 14.1493 12.4492 14.025 12.4492Z" fill="#343B45"/>
<path d="M18.075 16.5H16.725C16.6007 16.5 16.5 16.6007 16.5 16.725V18.075C16.5 18.1993 16.6007 18.3 16.725 18.3H18.075C18.1993 18.3 18.3 18.1993 18.3 18.075V16.725C18.3 16.6007 18.1993 16.5 18.075 16.5Z" fill="#343B45"/>
<path d="M18.075 12.4492H17.175C17.0507 12.4492 16.95 12.55 16.95 12.6742V13.5742C16.95 13.6985 17.0507 13.7992 17.175 13.7992H18.075C18.1993 13.7992 18.3 13.6985 18.3 13.5742V12.6742C18.3 12.55 18.1993 12.4492 18.075 12.4492Z" fill="#343B45"/>
<path d="M13.575 16.9492H12.675C12.5507 16.9492 12.45 17.05 12.45 17.1742V18.0742C12.45 18.1985 12.5507 18.2992 12.675 18.2992H13.575C13.6993 18.2992 13.8 18.1985 13.8 18.0742V17.1742C13.8 17.05 13.6993 16.9492 13.575 16.9492Z" fill="#343B45"/>
<path d="M16.275 7.5H14.475C14.3507 7.5 14.25 7.60074 14.25 7.725V9.525C14.25 9.64926 14.3507 9.75 14.475 9.75H16.275C16.3993 9.75 16.5 9.64926 16.5 9.525V7.725C16.5 7.60074 16.3993 7.5 16.275 7.5Z" fill="#343B45"/>
<path fill-rule="evenodd" clip-rule="evenodd" d="M12.45 6.59922C12.45 6.10218 12.853 5.69922 13.35 5.69922H17.4C17.897 5.69922 18.3 6.10218 18.3 6.59922V10.6492C18.3 11.1463 17.897 11.5492 17.4 11.5492H13.35C12.853 11.5492 12.45 11.1463 12.45 10.6492V6.59922ZM17.4 6.59922H13.35V10.6492H17.4V6.59922Z" fill="#343B45"/>
<path d="M9.525 7.5H7.725C7.60074 7.5 7.5 7.60074 7.5 7.725V9.525C7.5 9.64926 7.60074 9.75 7.725 9.75H9.525C9.64926 9.75 9.75 9.64926 9.75 9.525V7.725C9.75 7.60074 9.64926 7.5 9.525 7.5Z" fill="#343B45"/>
<path fill-rule="evenodd" clip-rule="evenodd" d="M5.7 6.59922C5.7 6.10218 6.10296 5.69922 6.6 5.69922H10.65C11.147 5.69922 11.55 6.10218 11.55 6.59922V10.6492C11.55 11.1463 11.147 11.5492 10.65 11.5492H6.6C6.10296 11.5492 5.7 11.1463 5.7 10.6492V6.59922ZM10.65 6.59922H6.6V10.6492H10.65V6.59922Z" fill="#343B45"/>
<path d="M9.525 14.25H7.725C7.60074 14.25 7.5 14.3507 7.5 14.475V16.275C7.5 16.3993 7.60074 16.5 7.725 16.5H9.525C9.64926 16.5 9.75 16.3993 9.75 16.275V14.475C9.75 14.3507 9.64926 14.25 9.525 14.25Z" fill="#343B45"/>
<path fill-rule="evenodd" clip-rule="evenodd" d="M5.7 13.3492C5.7 12.8522 6.10296 12.4492 6.6 12.4492H10.65C11.147 12.4492 11.55 12.8522 11.55 13.3492V17.3992C11.55 17.8963 11.147 18.2992 10.65 18.2992H6.6C6.10296 18.2992 5.7 17.8963 5.7 17.3992V13.3492ZM10.65 13.3492H6.6V17.3992H10.65V13.3492Z" fill="#343B45"/>
<path d="M2.87988 17.9998C2.87988 19.7229 4.27687 21.1199 6 21.1199H8.4V22.0797H6C3.74668 22.0797 1.92012 20.2531 1.92012 17.9998V15.5998H2.87988V17.9998ZM22.0799 17.9998C22.0799 20.2531 20.2533 22.0797 18 22.0797H15.6V21.1199H18C19.7231 21.1199 21.1201 19.7229 21.1201 17.9998V15.5998H22.0799V17.9998ZM18 1.91992C20.2533 1.91992 22.0799 3.74648 22.0799 5.9998V8.3998H21.1201V5.9998C21.1201 4.27667 19.7231 2.87968 18 2.87968H15.6V1.91992H18ZM8.4 2.87968H6C4.27687 2.87968 2.87988 4.27667 2.87988 5.9998V8.3998H1.92012V5.9998C1.92012 3.74648 3.74668 1.91992 6 1.91992H8.4V2.87968Z" fill="#343B45"/>
</svg>
