<svg xmlns="http://www.w3.org/2000/svg">
<path
    d="M17.4008 0.00483351C16.2665 0.0462308 14.4119 0.269776 13.7164 0.435365C10.2474 1.30471 7.58137 2.77017 5.22172 5.11326C4.4269 5.90809 3.30917 7.21624 3.21809 7.47291C3.19326 7.53914 3.14358 7.61366 3.11874 7.63849C2.78756 7.87032 1.52908 10.3956 1.0406 11.7782C-0.176484 15.2225 -0.333794 19.2215 0.610065 22.7071C0.6763 22.9555 0.734257 23.1956 0.750816 23.2453C0.866728 23.7503 1.34694 24.9591 1.79403 25.8947C3.04423 28.4779 4.63388 30.4318 6.92729 32.2285C8.27684 33.28 8.94748 33.7105 10.1811 34.2901C12.9051 35.5899 14.9998 36.0453 18.0218 35.9956C19.7853 35.9708 20.7457 35.8466 22.1615 35.4575C24.1734 34.9028 26.3343 33.8761 27.8743 32.7418C29.6461 31.4337 31.3517 29.6287 32.5688 27.7741C33.6865 26.052 34.887 23.0631 35.1189 21.4238C35.1437 21.2416 35.1851 21.0347 35.2099 20.9601C35.3176 20.5876 35.4666 18.5674 35.45 17.698C35.4252 16.7376 35.3507 15.6944 35.2762 15.3136C35.2513 15.1562 35.0857 14.3614 35.0361 14.1379C35.0278 14.0882 34.9947 13.906 34.9615 13.7239C34.7463 12.6145 34.1336 10.8923 33.5044 9.65868C33.0407 8.74794 32.0472 7.18312 31.4759 6.44625C30.9791 5.80046 29.8862 4.70757 29.2404 4.18596C28.8761 3.89618 28.5118 3.59812 28.429 3.53188C27.5763 2.83641 24.7199 1.26331 24.3059 1.26331C24.2562 1.26331 24.0989 1.21363 23.9581 1.1474C23.3951 0.899015 21.7889 0.451924 20.961 0.319453C19.5369 0.0876281 18.2039 -0.0282843 17.4008 0.00483351ZM20.754 1.3875C22.3188 1.69384 24.2148 2.33964 25.4402 2.96888C26.3509 3.43253 27.4604 4.14456 27.8743 4.51714C27.9406 4.58337 28.338 4.89799 28.7437 5.22089C29.4474 5.76734 30.532 6.91818 31.095 7.69645C31.4676 8.20978 32.428 9.83255 32.784 10.5363C33.3967 11.7699 34.0342 13.9143 34.2578 15.4626C34.2992 15.7772 34.3571 16.6714 34.382 17.4497C34.4399 18.94 34.3737 19.7679 34.0839 21.2582C34.0342 21.4817 33.9928 21.7467 33.9763 21.8378C33.7445 23.1542 32.6599 25.7622 31.7657 27.178C29.9856 29.993 27.3941 32.2533 24.4052 33.6029C22.8652 34.2901 21.2425 34.7537 19.6031 34.9607C18.7338 35.0683 16.341 35.0683 15.8112 34.9607C15.5959 34.9193 15.2564 34.8696 15.0577 34.8448C13.6419 34.6709 10.7524 33.6277 9.57672 32.8577C9.41941 32.7584 9.00544 32.4934 8.66598 32.2699C7.25847 31.3591 5.56118 29.786 4.53453 28.4117C3.59067 27.1615 2.38187 24.9508 2.09209 23.9573C2.01757 23.7172 1.9265 23.4688 1.89338 23.4191C1.76919 23.2701 1.39661 21.6556 1.24758 20.6869C1.22274 20.5048 1.18963 20.3309 1.17307 20.3061C1.13995 20.2481 1.0406 18.7826 1.01576 17.9464C0.98264 16.9943 1.22274 14.8747 1.47113 13.8895C2.55574 9.54277 5.18861 5.85013 8.79845 3.59812C10.7276 2.3976 13.0458 1.56965 15.3309 1.26331C15.7449 1.21363 16.1341 1.15568 16.2003 1.13912C16.2665 1.11428 17.0862 1.12256 18.0218 1.13912C19.3962 1.17224 19.9178 1.21363 20.754 1.3875Z"
    fill="#2B2B2B"
  />
<path
    d="M16.2914 3.88777C16.2831 5.70097 16.3245 5.98247 16.5646 5.98247C16.9372 5.98247 16.9703 5.88312 16.9951 4.86474C17.0117 4.32658 17.0365 3.87949 17.0531 3.86293C17.0696 3.83809 17.1524 4.00368 17.2352 4.21894C17.318 4.44249 17.525 4.90614 17.7072 5.26216C17.9224 5.69269 18.1294 5.89967 18.3281 5.88312C18.5185 5.86656 18.6345 5.81688 18.6427 5.73409C18.651 5.66785 18.6841 4.91442 18.7172 4.06991C18.7669 2.69552 18.7504 2.52166 18.6345 2.47198C18.5103 2.4223 18.1956 2.40574 18.1791 2.43886C18.1791 2.45542 18.1294 2.89423 18.0715 3.41584L17.9721 4.36797L17.5416 3.46551C17.3015 2.97703 17.111 2.53821 17.111 2.49682C17.111 2.45542 16.9289 2.4223 16.6971 2.4223H16.2914V3.88777Z"
    fill="#2B2B2B"
  />
<path
    d="M13.9814 2.79479C13.5591 2.89414 13.1948 2.9935 13.1783 3.01006C13.17 3.02662 13.3439 3.78833 13.5674 4.69907L13.9896 6.35496L14.7431 6.17281C15.1571 6.06518 15.5627 5.98238 15.6455 5.98238C15.7449 5.98238 15.7863 5.91615 15.7863 5.75056C15.7863 5.35314 15.7118 5.31175 15.1405 5.41938C14.859 5.46906 14.6106 5.49389 14.5775 5.46906C14.5527 5.43594 14.5113 5.27035 14.4864 5.09648L14.445 4.7653L14.8838 4.64939C15.3061 4.53348 15.3309 4.51692 15.3061 4.28509C15.2895 4.14434 15.2564 4.02015 15.2398 4.00359C15.2233 3.98703 14.9997 4.02843 14.7514 4.09467C14.238 4.23542 14.2049 4.21886 14.0973 3.70553C14.0476 3.47371 14.0642 3.44059 14.3208 3.34951C14.4699 3.29156 14.6354 3.25016 14.6934 3.25016C14.7431 3.25016 14.8756 3.21704 14.9915 3.16737C15.1819 3.10113 15.1902 3.06801 15.1157 2.83619C15.008 2.53813 14.9915 2.53813 13.9814 2.79479Z"
    fill="#2B2B2B"
  />
<path
    d="M19.8846 2.92753C19.8597 3.12624 19.7438 3.77203 19.6362 4.36815C19.3299 6.04061 19.3133 5.90813 19.8432 6.03233C20.0916 6.09028 20.4807 6.13996 20.7043 6.14824C21.0437 6.14824 21.1431 6.10684 21.3749 5.87502C21.7143 5.53556 21.9131 4.90632 21.9131 4.18601C21.9131 3.19247 21.4577 2.72054 20.3814 2.61291L19.9425 2.56323L19.8846 2.92753ZM21.0768 3.54849C21.4163 3.97902 21.201 5.24578 20.7539 5.48588C20.5221 5.61007 20.1247 5.5604 20.1578 5.41137C20.282 4.8318 20.5221 3.58989 20.5304 3.47397C20.5469 3.25871 20.8781 3.3001 21.0768 3.54849Z"
    fill="#2B2B2B"
  />
<path
    d="M23.3289 3.75531C22.7328 3.99542 22.1035 5.32013 22.1863 6.17292C22.2112 6.51237 22.2774 6.63657 22.4761 6.81871C22.7907 7.10022 23.3041 7.2658 23.627 7.19129C23.9913 7.10022 24.6619 6.34678 24.8772 5.79206C25.2414 4.83992 25.0676 4.16929 24.3638 3.84639C23.9581 3.65596 23.6518 3.62284 23.3289 3.75531ZM24.19 4.49219C24.4135 4.74057 24.3224 5.36981 23.983 5.93281C23.6684 6.44614 23.362 6.63657 23.0805 6.48754C22.7907 6.33023 22.7824 6.02389 23.0391 5.37809C23.4117 4.45079 23.8422 4.11133 24.19 4.49219Z"
    fill="#2B2B2B"
  />
<path
    d="M10.1976 4.15273C9.10473 4.68262 9.13784 4.55015 9.81676 5.71755C10.1397 6.27227 10.5205 6.96775 10.6695 7.25753C10.8351 7.59699 10.9676 7.77086 11.0173 7.72946C11.067 7.69634 11.4478 7.48108 11.8535 7.26581C12.2675 7.05054 12.6152 6.86012 12.6318 6.84356C12.6566 6.81872 12.549 6.5455 12.4248 6.33023C12.4165 6.31367 12.1764 6.4213 11.9032 6.56206C11.6217 6.70281 11.3567 6.79388 11.3071 6.76904C11.2657 6.73592 11.158 6.57861 11.067 6.40475L10.9096 6.09013L11.365 5.86658L11.8121 5.64304L11.6879 5.40293C11.6134 5.26218 11.5389 5.15455 11.514 5.15455C11.4975 5.15455 11.2905 5.24562 11.0752 5.36153C10.6364 5.5768 10.653 5.58508 10.3798 5.08831L10.2307 4.82337L10.7689 4.56671L11.3153 4.31004L11.1746 4.06994C11.0918 3.93747 10.9924 3.82983 10.9428 3.82983C10.9014 3.82983 10.5619 3.97886 10.1976 4.15273Z"
    fill="#2B2B2B"
  />
<path
    d="M25.3159 6.3634C24.4134 7.70468 24.3886 7.74607 24.5376 7.90338C24.8605 8.2594 24.9268 8.24284 25.2662 7.72124C25.5891 7.21619 25.6967 7.14995 25.8706 7.32382C25.9368 7.39006 25.9368 7.45629 25.8706 7.58876C25.8127 7.68812 25.7299 7.96134 25.6719 8.20972L25.5643 8.66509L25.8706 8.94659L26.177 9.23638L26.3177 8.6237C26.3922 8.28424 26.4585 7.92822 26.4667 7.82059C26.4667 7.67984 26.5164 7.63844 26.6903 7.63844C27.2533 7.63844 27.8908 6.81049 27.75 6.25577C27.6838 5.97427 27.1953 5.50234 26.6737 5.21256C26.4585 5.08837 26.268 4.98901 26.2597 4.98901C26.2515 4.98901 25.8209 5.60997 25.3159 6.3634ZM26.831 6.07362C26.9552 6.17298 27.0463 6.32201 27.0463 6.4462C27.0463 6.64491 26.7234 7.05888 26.5661 7.05888C26.4502 7.05888 26.0528 6.7277 26.0528 6.63663C26.0528 6.51243 26.4585 5.89975 26.5412 5.89975C26.5744 5.89975 26.7068 5.97427 26.831 6.07362Z"
    fill="#2B2B2B"
  />
<path
    d="M8.11942 5.58507C7.85448 5.8169 7.45706 6.18119 7.2418 6.3799L6.85266 6.75248L7.02653 6.99258L7.2004 7.24096L7.51502 6.92635C7.68889 6.75248 7.8462 6.62828 7.86276 6.65312C7.96211 6.77731 9.46897 8.61535 9.56004 8.69815C9.64284 8.78922 9.70907 8.77266 9.94918 8.5574L10.2307 8.30901L9.75875 7.75429C9.50209 7.44795 9.08812 6.97602 8.85629 6.69452L8.41748 6.19775L8.71554 5.89141L9.0136 5.58507L8.86457 5.36981C8.7735 5.25389 8.6907 5.15454 8.65758 5.15454C8.63275 5.15454 8.39264 5.34497 8.11942 5.58507Z"
    fill="#2B2B2B"
  />
<path
    d="M16.9455 7.2657C16.8792 7.28226 16.5398 7.33194 16.2003 7.38989C14.9087 7.5886 13.435 8.11848 12.309 8.78912C11.4562 9.29417 11.1416 9.54255 10.3385 10.3208C9.22073 11.4054 8.43418 12.5728 7.8629 13.9721C7.31645 15.3133 7.20054 15.8846 7.12603 17.6233C7.01839 19.9664 7.58968 21.9949 8.94751 24.0564C9.77545 25.3066 11.5224 26.8632 12.8803 27.5421C14.1139 28.1631 15.7615 28.6019 17.2352 28.6929C18.4854 28.7757 20.5636 28.4363 21.3998 28.014C21.5737 27.9312 21.8386 27.8153 22.0042 27.7656C22.7328 27.5338 24.3804 26.3664 25.2498 25.4722C26.6987 23.9736 27.8578 21.7134 28.0813 19.9333C28.0979 19.7511 28.1559 19.3951 28.2055 19.155C28.4208 18.0042 28.2221 15.9426 27.7584 14.6013C26.5496 11.0991 24.1403 8.77256 20.6712 7.73763C19.7274 7.45613 19.5701 7.42301 18.5186 7.3071C17.8479 7.23258 17.2104 7.21602 16.9455 7.2657ZM19.4293 8.34203C20.4477 8.5573 21.1763 8.7974 21.9545 9.18653C24.6536 10.5361 26.4337 12.8957 27.1044 15.9923C27.2948 16.8782 27.3031 17.0686 27.2617 18.4016C27.2368 19.3123 27.1706 20.0161 27.0878 20.3058C26.5331 22.2929 25.8956 23.4686 24.6702 24.7768C23.4366 26.1015 21.7227 27.1198 20.0089 27.5669C19.214 27.7739 19.0153 27.7905 17.6492 27.7905C16.2831 27.7905 16.0761 27.7656 15.331 27.5669C14.3788 27.3103 12.7229 26.5237 12.102 26.0187C11.8784 25.8365 11.5804 25.613 11.4396 25.5136C11.1664 25.3066 10.2308 24.2717 9.72578 23.6011C8.63289 22.1522 7.95397 19.776 8.03677 17.6978C8.16924 14.5599 9.3946 12.1257 11.8122 10.2049C13.2363 9.07062 14.9087 8.4331 17.1111 8.18472C17.6078 8.12676 18.7918 8.20956 19.4293 8.34203ZM25.0179 10.9501C25.0428 10.9915 25.0262 11.0329 24.9848 11.0329C24.9351 11.0329 24.8937 10.9915 24.8937 10.9501C24.8937 10.9004 24.9103 10.8673 24.9269 10.8673C24.9517 10.8673 24.9931 10.9004 25.0179 10.9501Z"
    fill="#2B2B2B"
  />
<path
    d="M16.3245 9.55961C15.0495 9.90734 14.1388 10.4289 13.2197 11.3562C12.3835 12.1925 12.1269 12.5237 11.7791 13.2191C11.4562 13.8732 11.3237 14.37 11.2658 15.1979C11.2161 15.8354 11.2906 16.001 11.6466 16.001C11.9613 16.001 12.0441 15.8686 12.1351 15.2062C12.2676 14.2955 12.4911 13.7821 13.1783 12.8134C13.9649 11.7123 15.0743 10.9092 16.4073 10.4869C17.2767 10.2054 17.9225 10.2054 18.9408 10.4869C20.0337 10.7767 20.5305 11.0168 21.3005 11.6046C22.766 12.7224 23.3952 14.0305 23.5359 16.2825C23.5939 17.1601 23.7098 17.4085 24.0658 17.4085C24.1983 17.4085 24.3308 17.3589 24.3722 17.3009C24.4053 17.2512 24.4467 16.7959 24.455 16.2991C24.5129 13.8152 23.4366 11.7951 21.2674 10.2965C20.8865 10.0315 20.0917 9.73347 19.2637 9.53477C18.3778 9.32778 17.1525 9.33606 16.3245 9.55961Z"
    fill="#2B2B2B"
  />
<path
    d="M16.962 11.1984C16.7136 11.2315 16.1672 11.4385 15.7283 11.6455C15.1074 11.9518 14.8259 12.1506 14.3871 12.5894C13.4515 13.5332 13.0706 14.3943 12.9299 15.8349C12.8471 16.696 12.3503 17.1679 11.3154 17.3749C10.8766 17.4577 10.86 17.4742 10.8517 17.7392C10.8435 17.8965 10.9014 18.0704 10.9842 18.1532C11.274 18.4429 12.4497 18.0538 13.0541 17.466C13.5343 16.994 13.7661 16.3731 13.8489 15.3381C13.9234 14.4191 14.6106 13.3759 15.571 12.7632C16.8543 11.927 18.0383 11.8856 19.57 12.6142C20.3483 12.9868 21.2342 13.8892 21.4826 14.5599C21.7392 15.2554 21.7723 15.512 21.7558 16.5552C21.7309 18.2277 22.2112 19.1467 23.3206 19.569C23.8505 19.7677 24.1072 19.7677 24.3224 19.5524C24.5956 19.2792 24.5046 18.9728 24.0989 18.8155C22.9397 18.385 22.7162 17.971 22.6251 16.1661C22.5506 14.651 22.4016 14.1542 21.7475 13.2848C21.1679 12.5066 20.9361 12.2913 20.2986 11.9022C19.3299 11.3226 18.0052 11.0411 16.962 11.1984Z"
    fill="#2B2B2B"
  />
<path
    d="M16.7219 13.0944C15.985 13.3428 15.2896 13.9306 14.9832 14.5516C14.859 14.8 14.7183 15.4706 14.6686 16.1247C14.5941 16.9361 14.3706 17.3914 13.7496 17.9875C13.1949 18.5257 12.4994 18.8983 11.6052 19.1467C11.1995 19.2626 11.0919 19.3288 11.0256 19.511C10.918 19.8173 11.0588 20.0077 11.4065 20.0409C11.7791 20.0823 12.2013 19.9498 13.1204 19.4944C13.7496 19.1798 13.998 19.0059 14.4782 18.5009C15.1902 17.7474 15.422 17.259 15.4966 16.3731C15.5959 15.2139 16.0016 14.4936 16.755 14.121C17.9059 13.558 19.2472 14.0382 19.835 15.2222C20.0089 15.5617 20.0254 15.7024 20.0171 16.8533C20.0089 17.8799 20.0337 18.2194 20.1579 18.6251C20.3897 19.3619 21.0935 20.3306 21.7393 20.8108C22.4265 21.3076 23.9002 21.705 24.19 21.4649C24.3556 21.3242 24.3473 20.935 24.1734 20.786C24.0906 20.7198 23.8009 20.6121 23.5276 20.5542C22.7494 20.3803 22.2774 20.0905 21.7724 19.453C21.0521 18.5588 20.9941 18.3601 20.9444 16.7622C20.903 15.2056 20.8368 14.949 20.3318 14.3115C19.4376 13.1855 17.9307 12.6721 16.7219 13.0944Z"
    fill="#2B2B2B"
  />
<path
    d="M17.0365 14.8909C16.5397 15.1393 16.4155 15.3463 16.3244 16.0832C16.1175 17.7308 15.8277 18.3683 14.8259 19.3039C14.3953 19.7096 13.9814 19.9993 13.5177 20.2229C12.8967 20.5292 12.044 20.8025 11.7211 20.8025C11.5224 20.8025 11.1498 21.1254 11.1498 21.2992C11.1498 21.5724 11.423 21.8125 11.7293 21.8125C12.2013 21.8043 13.6667 21.2661 14.387 20.8356C15.2978 20.2808 16.2085 19.3618 16.5811 18.6084C16.9123 17.9378 17.1938 17.0022 17.1938 16.5799C17.1938 15.8927 17.4339 15.5036 17.8479 15.5036C18.3695 15.5036 18.4191 16.729 17.9389 17.8301C17.4422 18.981 16.9537 19.7344 16.2582 20.4133C15.364 21.2827 13.7661 22.2182 12.5656 22.5743C11.9115 22.7647 11.8121 22.8475 11.8121 23.1455C11.8121 23.8493 12.4579 23.7913 14.1718 22.9468C14.7182 22.6819 15.3889 22.2928 15.6621 22.094C15.9353 21.8871 16.3741 21.5642 16.6391 21.3655C17.616 20.6369 18.3198 19.6019 18.8497 18.1116C19.156 17.2423 19.2719 16.1494 19.0981 15.6195C18.8166 14.7336 17.9638 14.4355 17.0365 14.8909Z"
    fill="#2B2B2B"
  />
<path
    d="M19.0236 19.6352C18.7587 20.2644 18.7918 20.5294 19.1975 21.0096C19.7274 21.6305 20.0171 21.8872 20.5553 22.2267C21.4246 22.7731 23.0391 23.4106 23.3041 23.3113C23.7098 23.154 23.776 22.6489 23.4117 22.4336C23.2792 22.3591 23.1137 22.2929 23.0391 22.2929C22.8239 22.2929 21.7641 21.9038 21.4329 21.705C20.8948 21.3822 19.9592 20.3555 19.6694 19.7677C19.5287 19.4696 19.3631 19.2295 19.3051 19.2295C19.2472 19.2295 19.123 19.4116 19.0236 19.6352Z"
    fill="#2B2B2B"
  />
<path
    d="M17.4008 21.9122C17.1772 22.0198 16.7053 22.3427 16.3658 22.6242C15.7614 23.1127 14.3705 23.8579 13.5674 24.1145C13.1286 24.2553 13.0044 24.4457 13.1534 24.752C13.3687 25.1991 13.6088 25.1909 14.6437 24.6775C15.157 24.4209 16.0595 23.891 16.6473 23.5019C17.3263 23.0548 17.7982 22.7898 17.9389 22.7898C18.3198 22.7898 18.9159 23.0051 19.2388 23.27C20.5056 24.2718 21.8054 24.8762 22.2774 24.6941C22.4512 24.6279 22.4926 24.5616 22.4926 24.3215C22.4926 24.0649 22.4595 24.0235 22.1449 23.8744C21.9462 23.7916 21.6481 23.6757 21.4826 23.6095C21.317 23.5515 20.9278 23.3363 20.6298 23.1293C20.3317 22.9223 19.777 22.5249 19.3878 22.2599C18.7917 21.8377 18.6261 21.7632 18.2536 21.7383C17.9141 21.7135 17.7237 21.7466 17.4008 21.9122Z"
    fill="#2B2B2B"
  />
<path
    d="M17.6161 23.9902C17.4671 24.0564 17.1028 24.28 16.8047 24.487C16.2086 24.9092 15.2896 25.3894 15.2896 25.2984C15.2813 25.1907 14.9584 25.613 14.9584 25.7206C14.9584 25.9276 15.2813 26.176 15.5048 26.1346C15.8112 26.0766 16.7716 25.5799 17.0696 25.3232C17.2104 25.2073 17.5002 25.05 17.7237 24.9755C18.3198 24.7767 18.7586 24.8595 19.3299 25.3066C19.8433 25.6958 20.398 26.0187 20.5636 26.0187C20.7292 26.0187 21.0024 25.7123 21.0024 25.5302C21.0024 25.4225 20.7043 25.1824 20.0751 24.7519C19.5618 24.4125 19.0567 24.0896 18.9656 24.0399C18.6427 23.8826 17.9224 23.8494 17.6161 23.9902Z"
    fill="#2B2B2B"
  />
<path
    d="M17.8562 25.7954C17.5747 25.9362 17.5333 26.2839 17.79 26.4164C18.146 26.5902 18.858 26.5737 19.0484 26.3832C19.2389 26.1928 19.2058 26.0355 18.916 25.8534C18.6096 25.6629 18.1625 25.6381 17.8562 25.7954Z"
    fill="#2B2B2B"
  />
<path
    d="M28.3214 7.48953C28.0813 7.60544 27.7916 8.1436 27.7916 8.47478C27.7916 8.63209 27.8495 8.85564 27.9075 8.97983C28.131 9.40208 28.1062 9.65874 27.833 9.84089C27.6342 9.97336 27.6094 9.97336 27.4604 9.83261C27.2617 9.65047 27.2534 9.51799 27.4355 9.21165C27.568 8.97983 27.568 8.97155 27.3693 8.80596C27.2617 8.71489 27.1126 8.64037 27.0464 8.65693C26.856 8.69005 26.6738 9.12886 26.6738 9.56767C26.6738 9.91541 26.7069 9.9982 26.9388 10.2052C27.0878 10.3377 27.3527 10.4867 27.5432 10.5446C27.833 10.6357 27.924 10.6274 28.1641 10.5115C28.3297 10.437 28.5284 10.2549 28.6195 10.1058C28.8182 9.78294 28.8348 9.18682 28.6609 8.88048C28.4042 8.44166 28.5698 8.01113 28.9672 8.06909C29.1245 8.08565 29.1577 8.1436 29.1577 8.40027C29.1577 8.62381 29.2156 8.77284 29.3729 8.93015C29.5799 9.12886 29.5965 9.13714 29.7372 8.99639C29.8449 8.88048 29.8697 8.75628 29.8366 8.43338C29.8035 8.08565 29.7538 7.97801 29.464 7.70479C29.1908 7.44813 29.0583 7.39017 28.8099 7.39845C28.6361 7.39845 28.4125 7.43985 28.3214 7.48953Z"
    fill="#2B2B2B"
  />
<path
    d="M5.92544 7.86197C5.46179 8.3753 5.46179 8.31734 5.99168 9.0211C6.25662 9.37711 6.5878 9.83248 6.72027 10.0395C6.86102 10.2465 7.12596 10.6025 7.30811 10.8426L7.65585 11.2648L7.91251 10.9999L8.1609 10.7432L7.8794 10.3789L7.59789 10.0229L7.78004 9.70001C7.8794 9.52614 7.98703 9.37711 8.02015 9.37711C8.04499 9.37711 8.24369 9.45163 8.4424 9.53442L8.81497 9.69173L9.06336 9.42679L9.30346 9.15357L7.80488 8.39186C6.98521 7.97789 6.2649 7.63843 6.21522 7.63843C6.17383 7.63843 6.04136 7.73778 5.92544 7.86197ZM6.91898 8.67336C7.1922 8.83895 7.44058 9.00454 7.46542 9.05422C7.49854 9.09561 7.45714 9.23636 7.37435 9.35228L7.2336 9.57582L6.92726 9.22808C6.62092 8.86379 6.3063 8.38358 6.38081 8.38358C6.40565 8.38358 6.64576 8.51605 6.91898 8.67336Z"
    fill="#2B2B2B"
  />
<path
    d="M4.19509 10.2632C3.91359 10.7848 3.69833 11.2236 3.71488 11.2401C3.73144 11.2484 3.86391 11.3229 4.01294 11.3974L4.28617 11.5382L4.38552 11.2898C4.4352 11.1491 4.50971 11.0331 4.54283 11.0331C4.58423 11.0331 5.16379 11.3064 5.84271 11.6458L7.06807 12.2668L7.20882 11.9687C7.28333 11.8114 7.33301 11.6624 7.32473 11.6458C7.27505 11.5961 5.89238 10.8427 5.42045 10.6026C5.15551 10.4701 4.94024 10.3294 4.94024 10.2797C4.94024 10.2383 5.01476 10.0562 5.09755 9.8823L5.26314 9.56768L4.98164 9.43521L4.70014 9.30273L4.19509 10.2632Z"
    fill="#2B2B2B"
  />
<path
    d="M29.6958 10.0976C29.2156 10.3873 28.6029 10.7434 28.3297 10.8841C28.0564 11.0249 27.8163 11.149 27.7998 11.1656C27.7667 11.1904 28.5118 12.6807 28.6112 12.7884C28.6691 12.8546 29.199 12.689 29.199 12.6062C29.199 12.5731 29.1079 12.3247 28.992 12.0432C28.8761 11.7617 28.785 11.5133 28.785 11.4885C28.785 11.4719 28.9258 11.3809 29.0997 11.2898L29.4143 11.1325L29.613 11.4968C29.8365 11.9025 29.9193 11.9273 30.1925 11.712L30.3664 11.5713L30.1511 11.1822L29.9359 10.8013L30.2174 10.6274C30.3747 10.5281 30.5154 10.4536 30.5403 10.4536C30.5568 10.4536 30.681 10.6771 30.8135 10.9421L31.0453 11.4388L31.3682 11.2732L31.6828 11.1159L31.509 10.7599C31.1944 10.139 30.7804 9.54283 30.6728 9.55111C30.6148 9.55939 30.176 9.79949 29.6958 10.0976Z"
    fill="#2B2B2B"
  />
<path
    d="M3.43341 12.2415C3.12707 12.4071 2.9532 12.7714 2.92836 13.2764C2.9118 13.6573 2.93664 13.7152 3.18502 13.9388C3.5162 14.2368 4.06264 14.2782 4.34415 14.0133C4.4435 13.9222 4.54285 13.8477 4.57597 13.8477C4.60909 13.8477 4.79124 13.7152 4.98994 13.5579C5.18037 13.4006 5.3708 13.2681 5.4122 13.2681C5.55295 13.2681 5.87585 13.6738 5.82617 13.7897C5.80133 13.856 5.6523 13.9553 5.49499 14.005C5.21349 14.1044 5.02306 14.3693 5.02306 14.6756C5.02306 14.9571 5.57779 14.8992 5.96692 14.5763C6.56304 14.0795 6.68723 13.3923 6.2567 12.8956C5.76821 12.3491 5.1307 12.3822 4.45178 12.9866C4.04609 13.3509 3.61555 13.4751 3.49136 13.2681C3.40857 13.1274 3.68179 12.7714 3.86394 12.7714C4.11232 12.7714 4.25307 12.3574 4.06264 12.2166C3.87222 12.0759 3.71491 12.0842 3.43341 12.2415Z"
    fill="#2B2B2B"
  />
<path
    d="M31.6001 12.2749C31.5339 12.3163 30.9957 12.5233 30.3996 12.7385C29.8118 12.9455 29.2239 13.1608 29.0997 13.2022C28.8845 13.285 28.8845 13.2932 28.9921 13.5913C29.2984 14.4689 29.464 14.7504 29.7621 14.8912C30.3582 15.1727 31.6498 14.8663 32.1714 14.3116C32.4612 14.0053 32.4943 13.4588 32.2625 12.7634C32.0638 12.1755 31.9313 12.0762 31.6001 12.2749ZM31.7574 13.2022C31.8899 13.5499 31.6581 13.8728 31.1116 14.1212C30.9129 14.204 30.6066 14.2951 30.4327 14.3116C30.176 14.3365 30.0933 14.3033 29.9525 14.1212C29.8531 14.0053 29.7786 13.8645 29.7786 13.8066C29.7786 13.7072 31.3435 13.0283 31.5836 13.02C31.6415 13.02 31.716 13.1028 31.7574 13.2022Z"
    fill="#2B2B2B"
  />
<path
    d="M31.0039 18.0377C30.8797 18.1039 30.739 18.2281 30.6893 18.3109C30.4906 18.6917 30.8797 19.3127 31.3186 19.3127C31.8733 19.3127 32.1879 18.4102 31.7325 18.1122C31.451 17.9217 31.2523 17.9052 31.0039 18.0377Z"
    fill="#2B2B2B"
  />
<path
    d="M3.72316 18.0703C3.44166 18.1862 3.27607 18.5008 3.33403 18.8072C3.44166 19.3205 4.06262 19.4861 4.47659 19.1052C4.76637 18.8403 4.75809 18.534 4.45175 18.2276C4.20337 17.9792 4.03778 17.9461 3.72316 18.0703Z"
    fill="#2B2B2B"
  />
<path
    d="M29.3812 21.5146C29.3398 21.6056 29.2818 21.7795 29.2487 21.9202C29.1908 22.1355 29.2322 22.2017 29.5882 22.5164L29.9856 22.8641L29.4226 22.8724H28.8679L28.5946 23.4105C28.4539 23.7003 28.0896 24.2882 27.7998 24.7021L27.2782 25.4556L27.4521 25.6377L27.6342 25.8116L27.9157 25.5053L28.2055 25.1989L29.2984 25.9027C29.9028 26.2835 30.4244 26.5981 30.4575 26.5981C30.5237 26.5981 30.8549 26.1428 30.8549 26.0434C30.8549 26.0103 30.6976 25.8861 30.4989 25.7785C30.3085 25.6708 29.8862 25.4059 29.5633 25.1989C29.2322 24.9919 28.901 24.7767 28.8182 24.727C28.6774 24.6442 28.6774 24.6276 28.8513 24.4041C29.0914 24.106 29.0831 23.9818 28.8099 23.8328C28.6609 23.7555 28.7492 23.6948 29.0748 23.6507C29.9607 23.5265 30.8549 23.5679 31.3517 23.7666C31.6001 23.8659 31.8153 23.9487 31.8319 23.9487C31.8733 23.9487 32.0968 23.3857 32.0968 23.2946C32.0968 23.245 31.8485 23.129 31.5421 23.038C31.0288 22.8807 30.9129 22.7979 30.2257 22.1107C29.5468 21.4483 29.4557 21.3821 29.3812 21.5146Z"
    fill="#2B2B2B"
  />
<path
    d="M5.23005 21.8459C4.86575 22.0032 4.31103 22.2268 3.98813 22.3427C3.1933 22.6325 3.10223 22.7235 3.2347 23.1044C3.76458 24.5947 4.26963 24.8182 5.64402 24.1559C6.15735 23.9075 6.2981 23.7999 6.48024 23.4852C6.67895 23.1458 6.69551 23.0796 6.60444 22.7898C6.44713 22.2599 6.09111 21.5479 5.99176 21.5479C5.9338 21.5479 5.59434 21.6803 5.23005 21.8459ZM5.85101 22.5331C6.05799 22.9305 5.87584 23.1955 5.13069 23.568C4.54285 23.8578 4.31931 23.8495 4.11232 23.5101C4.02124 23.3693 3.94673 23.2286 3.94673 23.2037C3.94673 23.1623 5.57778 22.4006 5.70198 22.3841C5.73509 22.3758 5.80133 22.4503 5.85101 22.5331Z"
    fill="#2B2B2B"
  />
<path
    d="M6.59614 24.2718C6.34776 24.454 5.75992 24.8265 5.29627 25.1163C4.82434 25.3978 4.44348 25.671 4.44348 25.7207C4.45176 25.7704 4.52628 25.9029 4.61735 26.0188L4.79122 26.2258L5.29627 25.9443C5.57777 25.787 6.02486 25.522 6.28152 25.3481C6.54646 25.166 6.77829 25.0252 6.80313 25.0252C6.81969 25.0252 7.01011 24.9093 7.2171 24.7603L7.58968 24.4954L7.39925 24.247C7.29162 24.1145 7.16742 23.9903 7.12603 23.9738C7.08463 23.9655 6.84452 24.0979 6.59614 24.2718Z"
    fill="#2B2B2B"
  />
<path
    d="M7.0763 25.4643C6.63749 25.605 6.06621 26.0356 5.75987 26.4495C5.51977 26.7807 5.50321 26.8387 5.5446 27.3023C5.586 27.708 5.6274 27.8322 5.80955 27.9895C5.93374 28.0971 6.14072 28.1965 6.26492 28.2296C6.40567 28.2545 6.48846 28.3124 6.46362 28.3786C6.40567 28.5277 6.65405 28.6933 6.86932 28.6353C6.96867 28.6105 7.29157 28.3786 7.57307 28.122L8.0864 27.6583L7.82145 27.3189C7.6807 27.1284 7.53995 26.938 7.50684 26.9049C7.47372 26.8718 7.34953 26.9215 7.22533 27.0208C7.01007 27.1864 7.01007 27.203 7.14254 27.352C7.32469 27.5507 7.22533 27.6666 6.8362 27.7246C6.50502 27.7742 6.29803 27.6418 6.22352 27.3272C6.17384 27.145 6.22352 27.0457 6.5133 26.731C6.84448 26.3667 7.42404 26.019 7.68898 26.019C7.7635 26.019 7.90425 26.0935 8.01188 26.1763C8.20231 26.3336 8.20231 26.3502 8.07812 26.582C7.9898 26.7366 8.05052 26.8745 8.26027 26.996L8.57489 27.1781L8.69908 26.996C8.77359 26.8966 8.83155 26.6482 8.83155 26.4495C8.83155 26.1515 8.78187 26.0438 8.51693 25.7541C8.24371 25.4643 8.14435 25.4146 7.78834 25.3898C7.56479 25.3732 7.24189 25.4063 7.0763 25.4643Z"
    fill="#2B2B2B"
  />
<path
    d="M26.8476 25.9276L26.6323 26.1594L26.8145 26.3581C27.0546 26.6148 28.1061 27.5255 28.6939 27.9892L29.141 28.3452L29.3397 28.1548C29.4473 28.0554 29.5219 27.9312 29.5136 27.8816C29.497 27.8319 29.1907 27.5338 28.8264 27.2109C28.4621 26.8963 27.9156 26.4244 27.6176 26.1677L27.0711 25.6875L26.8476 25.9276Z"
    fill="#2B2B2B"
  />
<path
    d="M26.2185 26.6231C26.0611 26.7638 25.73 27.0536 25.4899 27.2523C25.258 27.4593 25.0593 27.6663 25.0593 27.716C25.0593 27.7656 25.1338 27.8898 25.2332 27.9975L25.4071 28.1796L25.5892 28.014C25.6886 27.9147 25.7962 27.8402 25.821 27.8402C25.8459 27.8402 26.2598 28.3038 26.7483 28.8751C27.5514 29.8107 27.6425 29.8935 27.775 29.7858C27.8495 29.7196 27.9903 29.612 28.073 29.5457C28.2304 29.4381 28.189 29.3801 27.2948 28.3783L26.3509 27.3186L26.6241 27.0867L26.8974 26.8632L26.7235 26.6065C26.6159 26.4658 26.5331 26.3499 26.5248 26.3499C26.5165 26.3499 26.3758 26.474 26.2185 26.6231Z"
    fill="#2B2B2B"
  />
<path
    d="M8.76525 27.7822C8.35128 28.2542 7.86279 28.8089 7.68064 29.0076C7.4985 29.2063 7.34119 29.3967 7.34119 29.4216C7.34119 29.4464 7.4571 29.5706 7.59785 29.7113L7.85451 29.9514L8.21053 29.5375C8.40096 29.3056 8.89773 28.7344 9.3117 28.2542L10.0568 27.3848L9.84158 27.153C9.72567 27.0288 9.60148 26.9294 9.56836 26.9294C9.54352 26.9294 9.17923 27.3186 8.76525 27.7822Z"
    fill="#2B2B2B"
  />
<path
    d="M10.0734 27.8236L9.89124 28.0472L10.1479 28.2624C10.2887 28.3783 10.4046 28.5025 10.4046 28.5357C10.4046 28.5936 9.72565 29.6203 9.2206 30.3075C8.91426 30.7297 8.90598 30.7546 9.05501 30.8622C9.13781 30.9201 9.27856 31.0278 9.36963 31.094C9.51866 31.2099 9.55178 31.1768 9.99887 30.4896C10.2555 30.0839 10.5702 29.5871 10.7026 29.3719C10.9758 28.9 11.1 28.842 11.3484 29.0738C11.5885 29.2974 11.6796 29.2974 11.8369 29.049C11.9694 28.8586 11.9611 28.842 11.6216 28.6267C11.4312 28.4943 11.0421 28.2128 10.7606 27.9975L10.2473 27.5918L10.0734 27.8236Z"
    fill="#2B2B2B"
  />
<path
    d="M24.3804 28.122C24.2976 28.18 24.2314 28.271 24.2314 28.3124C24.2314 28.3621 24.4715 28.7926 24.7612 29.2811C25.0593 29.7613 25.2663 30.1587 25.2249 30.1587C25.1918 30.1587 25.1421 30.1339 25.1255 30.0925C25.1173 30.0594 24.8937 29.8855 24.6453 29.7034C24.3969 29.5295 24.0078 29.2315 23.7925 29.0576L23.3951 28.7264L23.1136 28.8837C22.9563 28.9665 22.8239 29.0493 22.8239 29.0659C22.8239 29.1487 24.2728 31.9802 24.3142 31.9802C24.339 31.9802 24.4715 31.8892 24.6039 31.7815L24.8523 31.5828L24.6867 31.2599C24.5957 31.0861 24.4218 30.7632 24.2893 30.5396C24.1651 30.3161 24.0741 30.1174 24.0989 30.1008C24.132 30.0677 24.5294 30.3326 25.1504 30.8128C25.5644 31.1357 25.7548 31.1854 26.0446 31.0364C26.1853 30.9619 26.3012 30.8542 26.3012 30.8045C26.3012 30.73 25.1752 28.6519 24.8606 28.1551C24.753 27.9813 24.5791 27.9647 24.3804 28.122Z"
    fill="#2B2B2B"
  />
<path
    d="M12.2758 29.1897C12.0025 29.4298 10.239 31.4914 10.239 31.5659C10.239 31.5907 10.3632 31.6818 10.5205 31.7563L10.8103 31.8888L11.0587 31.599L11.3153 31.3092L11.6548 31.4997C11.986 31.6901 11.986 31.6984 11.9446 32.0709C11.9115 32.3249 11.997 32.4822 12.2012 32.5429C12.3668 32.5926 12.5241 32.6257 12.5407 32.6008C12.5655 32.576 12.6649 32.0461 13.0871 29.5126C13.112 29.3636 13.054 29.289 12.7974 29.1649L12.4827 28.9993L12.2758 29.1897ZM12.4082 30.1336C12.3586 30.2163 12.3006 30.4565 12.2675 30.68C12.2344 30.8953 12.1764 31.0857 12.1433 31.1105C12.0605 31.1602 11.6465 30.9863 11.6465 30.9035C11.6465 30.8125 12.4082 29.9017 12.4496 29.9431C12.4745 29.9597 12.4496 30.0508 12.4082 30.1336Z"
    fill="#2B2B2B"
  />
<path
    d="M22.0787 29.3305C21.9628 29.3719 21.6068 29.4795 21.2756 29.5789L20.6877 29.761L20.8782 30.4399C20.9775 30.8042 21.1928 31.5246 21.3418 32.0296L21.615 32.9569L22.029 32.8327C23.2709 32.4767 23.4862 32.3856 23.4034 32.2366C23.2295 31.9054 23.0971 31.864 22.6417 32.013C22.1615 32.1621 22.0953 32.129 22.029 31.715C21.9793 31.4335 21.9876 31.4252 22.3602 31.3176C22.7328 31.2182 22.7493 31.2017 22.6914 30.9533C22.6251 30.6304 22.6334 30.6387 22.4016 30.7215C21.8138 30.9367 21.7724 30.9284 21.6399 30.531C21.5157 30.1833 21.5157 30.1502 21.6647 30.0757C21.7475 30.0343 21.8717 29.9929 21.9379 29.9929C22.0042 29.9929 22.1698 29.9432 22.3022 29.8852C22.5258 29.7942 22.5423 29.761 22.4761 29.5126C22.4016 29.2311 22.3933 29.2229 22.0787 29.3305Z"
    fill="#2B2B2B"
  />
<path
    d="M13.9399 30.1749C13.8654 30.4647 13.7661 30.8621 13.7164 31.0691C13.675 31.2761 13.5508 31.7563 13.4349 32.1454C13.319 32.5263 13.2362 32.8492 13.2445 32.8575C13.2527 32.8575 13.6419 32.9403 14.1138 33.0313L14.9666 33.1969L15.0494 32.9982C15.1736 32.6753 15.1487 32.6505 14.6271 32.5429C14.2463 32.4683 14.1386 32.4104 14.1635 32.311C14.1883 32.2448 14.3042 31.7563 14.4201 31.2347C14.5443 30.7131 14.6768 30.1749 14.7182 30.0425C14.7596 29.91 14.7844 29.7941 14.7762 29.7858C14.7596 29.7692 14.6023 29.7361 14.4119 29.7113L14.0724 29.6533L13.9399 30.1749Z"
    fill="#2B2B2B"
  />
<path
    d="M18.6178 30.1337L18.2535 30.1668L18.3115 30.7629C18.3695 31.4418 18.5185 32.9321 18.5599 33.1805C18.5764 33.3295 18.6344 33.3461 19.1063 33.3212C19.7438 33.2881 20.2737 33.0729 20.4807 32.7582C20.7043 32.4022 20.6711 31.3673 20.4145 30.8457C20.0667 30.1502 19.7604 30.0343 18.6178 30.1337ZM19.57 30.7795C19.7935 30.9368 19.926 31.3756 19.926 31.9386C19.926 32.4188 19.777 32.6837 19.4789 32.7417C19.2305 32.7914 19.214 32.75 19.1394 31.9386C19.1146 31.6157 19.0732 31.2348 19.0484 31.0775C18.9987 30.6718 19.2305 30.5393 19.57 30.7795Z"
    fill="#2B2B2B"
  />
<path
    d="M17.1028 30.2579C17.1028 30.3158 17.078 31.0444 17.0614 31.8724L17.02 33.3875H17.7734L17.79 32.2284C17.7983 31.5909 17.8066 30.8705 17.8148 30.6304V30.1999L17.4671 30.1751C17.2187 30.1585 17.1111 30.1833 17.1028 30.2579Z"
    fill="#2B2B2B"
  />
</svg>
