<svg
  width="512"
  height="512"
  viewBox="0 0 512 512"
  fill="none"
  xmlns="http://www.w3.org/2000/svg"
>
<g clip-path="url(#clip0_1109_9583)">
<rect
      width="512"
      height="512"
      fill="#2856C5"
    />
<path
      d="M263.897 397.743C231.56 397.743 205.286 390.467 185.076 375.916C164.865 361.364 -9.10718 255.407 -13.4727 229.053L0.00102806 182.865C3.07303 195.8 217.736 328.462 228.245 335.899C238.755 343.336 252.013 347.055 268.02 347.055C282.086 347.055 292.919 344.307 300.518 338.809C308.279 333.15 312.159 325.47 312.159 315.769C312.159 309.787 310.704 305.017 307.794 301.46C305.045 297.742 298.901 294.184 289.362 290.789C279.823 287.394 265.19 283.109 245.465 277.935C223.476 272.115 206.014 265.89 193.079 259.261C180.144 252.47 170.847 244.467 165.188 235.251C159.529 226.035 156.7 214.878 156.7 201.782C156.7 185.452 160.985 171.224 169.554 159.097C178.123 146.971 190.088 137.674 205.448 131.207C220.808 124.578 238.916 121.263 259.774 121.263C280.146 121.263 298.174 124.416 313.857 130.722C329.702 137.027 342.475 146.001 352.176 157.642C361.877 169.283 367.86 182.946 370.123 198.629L310.462 209.3C309.007 198.144 303.913 189.332 295.183 182.865C286.613 176.397 275.134 172.76 260.744 171.951C247.001 171.143 235.925 173.245 227.518 178.257C219.11 183.107 214.906 189.979 214.906 198.872C214.906 203.884 216.604 208.168 219.999 211.725C223.395 215.283 230.185 218.84 240.372 222.397C250.719 225.954 266.079 230.319 286.452 235.493C307.309 240.829 323.962 246.973 336.412 253.925C349.023 260.716 358.078 268.881 363.575 278.42C369.234 287.96 372.063 299.52 372.063 313.102C372.063 339.456 362.443 360.152 343.203 375.188C324.124 390.225 297.689 397.743 263.897 397.743Z"
      fill="white"
    />
</g>
<defs>
<clipPath id="clip0_1109_9583">
<rect
        width="512"
        height="512"
        fill="white"
      />
</clipPath>
</defs>
</svg>
